<svg width="32" height="32" viewBox="0 0 32 32" fill="none" xmlns="http://www.w3.org/2000/svg">
<g clip-path="url(#clip0_213_4305)">
<path d="M27.3062 4.68291C25.8218 3.19522 24.0581 2.01547 22.1163 1.21141C20.1746 0.407357 18.0932 -0.00515389 15.9916 -0.00242798C7.15424 -0.00242798 -0.00976562 7.16157 -0.00976562 15.9989C-0.00976562 20.4176 1.78223 24.4189 4.67823 27.3149C6.16267 28.8026 7.92641 29.9823 9.86813 30.7864C11.8098 31.5905 13.8913 32.003 15.9929 32.0002C24.8302 32.0002 31.9942 24.8362 31.9942 15.9989C31.9942 11.5802 30.2022 7.57891 27.3062 4.68291ZM25.2502 25.2522C24.0359 26.4697 22.5929 27.4352 21.0042 28.0933C19.4155 28.7514 17.7125 29.0891 15.9929 29.0869C8.76223 29.0869 2.9009 23.2256 2.9009 15.9949C2.89875 14.2753 3.23641 12.5723 3.89449 10.9836C4.55256 9.39492 5.51808 7.95194 6.73557 6.73757C7.94965 5.52007 9.39238 4.55452 10.9808 3.89644C12.5693 3.23835 14.2722 2.90071 15.9916 2.90291C23.2209 2.90291 29.0822 8.76424 29.0822 15.9936C29.0845 17.713 28.7469 19.4159 28.0888 21.0043C27.4307 22.5928 26.4651 24.0355 25.2476 25.2496L25.2502 25.2522Z" fill="white"/>
<path d="M18.0491 16.0002L23.1891 10.8602C23.4426 10.5838 23.5796 10.2202 23.5715 9.84522C23.5634 9.47026 23.4107 9.11292 23.1454 8.84781C22.8802 8.5827 22.5227 8.43029 22.1478 8.4224C21.7728 8.41452 21.4093 8.55176 21.1331 8.80548L21.1344 8.80415L15.9944 13.9442L10.8544 8.80415C10.578 8.55061 10.2144 8.4136 9.83948 8.42173C9.46452 8.42986 9.10719 8.5825 8.84207 8.84778C8.57696 9.11307 8.42455 9.4705 8.41667 9.84546C8.40878 10.2204 8.54602 10.584 8.79975 10.8602L8.79841 10.8588L13.9384 15.9988L8.79841 21.1388C8.6538 21.2715 8.53752 21.4321 8.45659 21.6109C8.37566 21.7897 8.33174 21.983 8.32749 22.1792C8.32324 22.3754 8.35873 22.5704 8.43184 22.7526C8.50494 22.9347 8.61415 23.1002 8.75288 23.239C8.89161 23.3778 9.05699 23.4871 9.23908 23.5603C9.42117 23.6336 9.61619 23.6692 9.8124 23.6651C10.0086 23.6609 10.202 23.6171 10.3808 23.5363C10.5597 23.4555 10.7203 23.3393 10.8531 23.1948L10.8544 23.1935L15.9944 18.0535L21.1344 23.1935C21.2671 23.3381 21.4277 23.4544 21.6065 23.5353C21.7852 23.6162 21.9786 23.6602 22.1748 23.6644C22.371 23.6687 22.566 23.6332 22.7482 23.5601C22.9303 23.487 23.0958 23.3777 23.2346 23.239C23.3734 23.1003 23.4827 22.9349 23.5559 22.7528C23.6292 22.5707 23.6648 22.3757 23.6607 22.1795C23.6565 21.9833 23.6127 21.7899 23.5319 21.6111C23.4511 21.4322 23.3349 21.2716 23.1904 21.1388L23.1891 21.1375L18.0491 16.0002Z" fill="white"/>
</g>
<defs>
<clipPath id="clip0_213_4305">
<rect width="32" height="32" fill="white"/>
</clipPath>
</defs>
</svg>
