<svg width="45" height="45" viewBox="0 0 45 45" fill="none" xmlns="http://www.w3.org/2000/svg">
<path d="M22.9996 0H20.9996C20.4996 0 20.0996 0.400024 20.0996 0.900024V9.90002C20.0996 10.4 20.4996 10.8 20.9996 10.8H22.9996C23.4996 10.8 23.8997 10.4 23.8997 9.90002V0.900024C23.8997 0.400024 23.4996 0 22.9996 0Z" fill="#E84210"/>
<path d="M22.9996 33.3999H20.9996C20.4996 33.3999 20.0996 33.7999 20.0996 34.2999V43.2999C20.0996 43.7999 20.4996 44.1999 20.9996 44.1999H22.9996C23.4996 44.1999 23.8997 43.7999 23.8997 43.2999V34.2999C23.8997 33.7999 23.4996 33.3999 22.9996 33.3999Z" fill="#E84210"/>
<path d="M13.1003 2.7999C12.9003 2.3999 12.3003 2.19992 11.9003 2.49992L10.2003 3.49992C9.80029 3.69992 9.60031 4.29993 9.90031 4.69993L14.4003 12.4999C14.6003 12.8999 15.2003 13.0999 15.6003 12.7999L17.3003 11.7999C17.7003 11.5999 17.9003 10.9999 17.6003 10.5999L13.1003 2.7999Z" fill="#E84210"/>
<path d="M2.6998 13.0998L10.4998 17.5998C10.8998 17.7998 11.4998 17.6998 11.6998 17.2998L12.6998 15.5998C12.8998 15.1998 12.7998 14.5998 12.3998 14.3998L4.59976 9.89981C4.19976 9.69981 3.59981 9.7998 3.39981 10.1998L2.39981 11.8998C2.19981 12.2998 2.2998 12.8998 2.6998 13.0998Z" fill="#E84210"/>
<path d="M10.8 23.1002V21.1002C10.8 20.6002 10.4 20.2002 9.90002 20.2002H0.900024C0.400024 20.2002 0 20.6002 0 21.1002V23.1002C0 23.6002 0.400024 24.0002 0.900024 24.0002H9.90002C10.3 24.0002 10.8 23.6002 10.8 23.1002Z" fill="#E84210"/>
<path d="M43.3004 20.2002H34.3004C33.8004 20.2002 33.4004 20.6002 33.4004 21.1002V23.1002C33.4004 23.6002 33.8004 24.0002 34.3004 24.0002H43.3004C43.6004 24.0002 43.9004 23.8002 44.0004 23.6002C44.1004 23.5002 44.2004 23.3002 44.2004 23.1002V21.1002C44.2004 20.9002 44.1004 20.7002 44.0004 20.6002C43.8004 20.4002 43.6004 20.2002 43.3004 20.2002Z" fill="#E84210"/>
<path d="M12.7999 28.6L11.7999 26.9C11.5999 26.5 10.9999 26.3 10.5999 26.6L2.7999 31.1C2.3999 31.3 2.19992 31.9 2.49992 32.3L3.49992 34C3.69992 34.4 4.29993 34.6 4.69993 34.3L12.4999 29.8C12.8999 29.6 12.9999 29 12.7999 28.6Z" fill="#E84210"/>
<path d="M37.6003 10.9002L31.7003 14.3002C31.3003 14.5002 31.1003 15.1002 31.4003 15.5002L32.4003 17.2002C32.6003 17.6002 33.2003 17.8002 33.6003 17.5002L39.3003 14.2002L40.2003 13.7002L41.5003 13.0002C41.9003 12.8002 42.1003 12.2002 41.8003 11.8002L40.8003 10.1002C40.6003 9.80016 40.4003 9.7002 40.1003 9.7002C39.9003 9.7002 39.8003 9.70017 39.6003 9.80017L37.6003 10.9002Z" fill="#E84210"/>
<path d="M17.2998 32.3998L15.5998 31.3998C15.1998 31.1998 14.5998 31.2998 14.3998 31.6998L9.89981 39.4998C9.69981 39.8998 9.7998 40.4998 10.1998 40.6998L11.8998 41.6998C12.2998 41.8998 12.8998 41.7998 13.0998 41.3998L17.5998 33.5998C17.7998 33.1998 17.6998 32.5998 17.2998 32.3998Z" fill="#E84210"/>
<path d="M26.8004 11.7999L28.5004 12.7999C28.9004 12.9999 29.5004 12.8999 29.7004 12.4999L33.8004 5.29989L34.2004 4.69992C34.4004 4.39992 34.4004 4.09989 34.2004 3.79989C34.1004 3.69989 34.0004 3.49991 33.9004 3.49991L32.2004 2.49991C31.8004 2.29991 31.2004 2.39989 31.0004 2.79989L26.5004 10.5999C26.3004 10.9999 26.4004 11.5999 26.8004 11.7999Z" fill="#E84210"/>
<path d="M34.2995 39.4998L34.0995 39.0998L29.7995 31.6998C29.5995 31.2998 28.9995 31.0998 28.5995 31.3998L26.8996 32.3998C26.4996 32.5998 26.2995 33.1998 26.5995 33.5998L31.0995 41.3998C31.2995 41.7998 31.8995 41.9998 32.2995 41.6998L33.9995 40.6998C34.1995 40.5998 34.3996 40.3998 34.3996 40.1998C34.3996 39.9998 34.3995 39.6998 34.2995 39.4998Z" fill="#E84210"/>
<path d="M41.4002 31.0999L40.2002 30.3999L39.2002 29.7999L33.5002 26.4999C33.1002 26.2999 32.5002 26.3999 32.3002 26.7999L31.3002 28.4999C31.1002 28.8999 31.2002 29.4999 31.6002 29.6999L37.5002 33.0999L39.4002 34.1999C39.6002 34.2999 39.8002 34.2999 39.9002 34.2999C40.2002 34.2999 40.4002 34.0999 40.6002 33.8999L41.6002 32.1999C41.9002 31.8999 41.8002 31.2999 41.4002 31.0999Z" fill="#E84210"/>
</svg>
