<svg width="24" height="24" viewBox="0 0 24 24" fill="none" xmlns="http://www.w3.org/2000/svg">
<path d="M14.94 8.97762C16.6093 8.97762 17.9625 7.6244 17.9625 5.95512C17.9625 4.28584 16.6093 2.93262 14.94 2.93262C13.2707 2.93262 11.9175 4.28584 11.9175 5.95512C11.9175 7.6244 13.2707 8.97762 14.94 8.97762Z" stroke="white" stroke-width="1.5" stroke-linecap="round" stroke-linejoin="round"/>
<path d="M11.415 12H12.3225C12.1536 11.2832 11.7477 10.6445 11.1706 10.1871C10.5935 9.72978 9.87887 9.48062 9.1425 9.47998H4.7775C3.90825 9.47998 3.07461 9.82529 2.45996 10.4399C1.84531 11.0546 1.5 11.8882 1.5 12.7575C1.5 13.6267 1.84531 14.4604 2.45996 15.075C3.07461 15.6897 3.90825 16.035 4.7775 16.035H7.38C7.38 14.9648 7.80512 13.9385 8.56182 13.1818C9.31853 12.4251 10.3449 12 11.415 12Z" stroke="white" stroke-opacity="0.6" stroke-width="1.5" stroke-linecap="round" stroke-linejoin="round"/>
<path d="M6.95986 7.29747C7.39363 7.29895 7.81808 7.17158 8.17937 6.93151C8.54066 6.69144 8.82252 6.34949 8.9892 5.94902C9.15589 5.54854 9.19989 5.10759 9.11563 4.68207C9.03137 4.25655 8.82264 3.86565 8.51591 3.55892C8.20918 3.25219 7.81827 3.04346 7.39276 2.9592C6.96724 2.87493 6.52628 2.91894 6.12581 3.08562C5.72533 3.25231 5.38338 3.53417 5.14331 3.89546C4.90324 4.25675 4.77587 4.68119 4.77736 5.11497C4.77736 5.6938 5.0073 6.24893 5.4166 6.65823C5.82589 7.06753 6.38102 7.29747 6.95986 7.29747Z" stroke="white" stroke-opacity="0.6" stroke-width="1.5" stroke-linecap="round" stroke-linejoin="round"/>
<path d="M18.4649 12H11.4149C9.18641 12 7.37988 13.8065 7.37988 16.035V17.04C7.37988 19.2685 9.18641 21.075 11.4149 21.075H18.4649C20.6934 21.075 22.4999 19.2685 22.4999 17.04V16.035C22.4999 13.8065 20.6934 12 18.4649 12Z" stroke="white" stroke-width="1.5" stroke-linecap="round" stroke-linejoin="round"/>
</svg>
