<svg width="80" height="80" viewBox="0 0 80 80" fill="none" xmlns="http://www.w3.org/2000/svg">
<path d="M76.3438 28.0938C73.7812 14.0938 58.5 4.53125 45.4375 2.65625C44.4062 2.5 43.3438 2.40625 42.2188 2.375C40.75 2.28125 39.2812 2.28125 37.875 2.375C36.6875 2.40625 35.625 2.5 34.5938 2.65625C21.5312 4.53125 6.25 14.0938 3.6875 28.0938L3.34375 29.9688L5.25 29.875C12.9062 29.5 20.375 31.2812 25.75 34.7188L26.375 35.125L27.0938 34.875C30.9688 33.4375 35.5938 33.0625 38 32.9375L38.5312 32.9062C38.7188 32.9062 40.6875 32.9062 40.9688 32.875L42.0625 32.9062C45 33.0313 49.2812 33.4688 52.9375 34.8438L53.6562 35.0938L54.2812 34.6875C59.6562 31.25 67.1563 29.5 74.7812 29.8438L76.6875 29.9375L76.3438 28.0938ZM72.75 26.7812C65.4688 26.7812 58.6562 28.5 53.2812 31.75C49.4062 30.4375 45.1562 30.0312 42.1875 29.875L41.0938 29.8438C40.7188 29.8438 38.5625 29.8438 38.4062 29.8438L37.8438 29.875C34.875 30 30.5938 30.4375 26.75 31.75C21.375 28.5312 14.5625 26.7812 7.28125 26.7812C7.21875 26.7812 7.15625 26.7812 7.125 26.7812C10.3438 15.2187 23.5938 7.3125 35 5.6875C35.9062 5.5625 36.875 5.46875 38 5.4375C39.3125 5.34375 40.6562 5.34375 42.0312 5.4375C43.0938 5.46875 44.0625 5.5625 44.9688 5.6875C56.4062 7.34375 69.625 15.2188 72.9062 26.8125C72.875 26.7812 72.8125 26.7812 72.75 26.7812Z" fill="white"/>
<path d="M40.4998 55.4688C36.406 54.0312 33.8748 52.9688 33.4998 50.0313C33.2185 47.9063 34.8123 45.6562 37.0623 44.9687C39.406 44.2812 42.5623 44.5625 45.531 45.75C46.3123 46.0625 47.1873 45.6875 47.4998 44.9062C47.8123 44.125 47.4373 43.25 46.656 42.9375C44.9373 42.25 43.156 41.8125 41.4373 41.6562V38.6562C41.4373 37.8125 40.7498 37.125 39.906 37.125C39.0623 37.125 38.3748 37.8125 38.3748 38.6562V41.6562C37.6248 41.75 36.8748 41.875 36.1873 42.0625C32.4998 43.1563 29.9998 46.8437 30.4685 50.4375C31.1248 55.4062 35.5623 56.9687 39.4998 58.3437C41.656 59.0937 43.656 59.8125 44.8748 60.9688C45.9685 62 46.531 63.3125 46.531 64.6875C46.531 66.0312 45.906 67.3438 44.8123 68.3125C43.5935 69.4062 41.9373 70.0312 39.8123 70.1875C38.2185 70.2812 36.3748 70.0938 34.1248 69.6875C33.5935 69.5938 32.9998 69.4688 32.4998 69.3125C31.6873 69.0625 30.8435 69.5312 30.5935 70.3438C30.3435 71.1562 30.8123 72 31.6248 72.25C32.281 72.4375 32.9685 72.5938 33.5623 72.6875C35.3748 73.0312 36.906 73.1875 38.3435 73.25V76.1875C38.3435 77.0312 39.031 77.7188 39.8748 77.7188C40.7185 77.7188 41.406 77.0312 41.406 76.1875V73.0625C43.5935 72.6875 45.406 71.9062 46.8435 70.5937C48.5935 69.0312 49.5623 66.9688 49.5935 64.7188C49.6248 62.4688 48.6873 60.375 46.9998 58.7812C45.3123 57.1563 42.8748 56.3125 40.4998 55.4688Z" fill="white"/>
</svg>
