<svg width="80" height="80" viewBox="0 0 80 80" fill="none" xmlns="http://www.w3.org/2000/svg">
<path d="M71.4751 10.7252C70.7 10.0741 69.7622 9.64632 68.7625 9.48776C67.7627 9.3292 66.7386 9.44585 65.8001 9.82519L8.52509 32.7502C7.69018 33.097 6.97674 33.6834 6.47484 34.4354C5.97294 35.1873 5.70508 36.0711 5.70508 36.9752C5.70508 37.8793 5.97294 38.7631 6.47484 39.515C6.97674 40.267 7.69018 40.8534 8.52509 41.2002L12.2251 42.7252C12.8351 42.9833 13.5227 42.9887 14.1367 42.7402C14.7508 42.4918 15.2411 42.0098 15.5001 41.4002C15.6271 41.0966 15.693 40.7709 15.6939 40.4418C15.6947 40.1127 15.6306 39.7866 15.5052 39.4823C15.3798 39.1781 15.1955 38.9015 14.963 38.6686C14.7304 38.4358 14.4542 38.2511 14.1501 38.1252L11.4001 37.0002L67.6751 14.5002C67.7616 14.4471 67.8611 14.4191 67.9626 14.4191C68.0641 14.4191 68.1636 14.4471 68.2501 14.5002C68.3317 14.5695 68.3933 14.6593 68.4284 14.7604C68.4636 14.8615 68.4711 14.9702 68.4501 15.0752L58.1751 63.0252C58.1414 63.196 58.0637 63.355 57.9497 63.4865C57.8357 63.6181 57.6893 63.7176 57.5251 63.7752C57.3639 63.8391 57.1886 63.859 57.0172 63.8326C56.8458 63.8062 56.6846 63.7346 56.5501 63.6252L36.5501 48.0252L56.1251 28.2502C56.5432 27.8163 56.7906 27.2461 56.8218 26.6443C56.8529 26.0426 56.6656 25.4498 56.2944 24.9752C55.9232 24.5005 55.393 24.1759 54.8015 24.0611C54.21 23.9462 53.5969 24.0489 53.0751 24.3502L24.3751 41.3502C24.0563 41.4943 23.7713 41.7036 23.5386 41.9647C23.3058 42.2258 23.1304 42.5329 23.0237 42.866C22.9171 43.1992 22.8815 43.551 22.9193 43.8988C22.9572 44.2465 23.0676 44.5825 23.2434 44.8849C23.4192 45.1873 23.6566 45.4494 23.9401 45.6544C24.2235 45.8593 24.5469 46.0025 24.8892 46.0746C25.2315 46.1467 25.5851 46.1462 25.9272 46.0731C26.2692 46 26.5922 45.8559 26.8751 45.6502L38.9501 38.5252L33.0751 44.5002C32.5376 45.0052 32.1185 45.6228 31.8478 46.3088C31.5771 46.9948 31.4615 47.7322 31.5093 48.4681C31.5571 49.204 31.7671 49.9203 32.1242 50.5655C32.4814 51.2107 32.9768 51.7689 33.5751 52.2002L53.5751 67.5752C54.6277 68.3876 55.9204 68.8272 57.2501 68.8252C57.9581 68.8201 58.66 68.6932 59.3251 68.4502C60.2801 68.1074 61.1311 67.525 61.7964 66.7589C62.4618 65.9929 62.9193 65.0688 63.1251 64.0752L73.3251 16.1752C73.5416 15.1844 73.4837 14.1533 73.1578 13.193C72.8318 12.2327 72.25 11.3794 71.4751 10.7252Z" fill="white"/>
</svg>
