<svg width="80" height="80" viewBox="0 0 80 80" fill="none" xmlns="http://www.w3.org/2000/svg">
<path d="M73.9375 29.6875C73.9375 26.2187 71.0938 23.375 67.625 23.375C64.1562 23.375 61.3125 26.2187 61.3125 29.6875C61.3125 30.8437 61.6563 31.9375 62.2188 32.875L53.7188 41.375C52.8438 40.9375 51.875 40.6562 50.8438 40.6562C49.5312 40.6562 48.3438 41.0625 47.3125 41.7188L38.7812 33.2188C39.4687 32.2188 39.875 31 39.875 29.6875C39.875 26.2187 37.0312 23.375 33.5625 23.375C30.0937 23.375 27.25 26.2187 27.25 29.6875C27.25 30.7187 27.5312 31.6875 27.9688 32.5312L18.9375 41.5625C18 41 16.9063 40.6562 15.75 40.6562C12.2812 40.6562 9.4375 43.5 9.4375 46.9688C9.4375 50.4375 12.2812 53.2812 15.75 53.2812C19.2188 53.2812 22.0625 50.4375 22.0625 46.9688C22.0625 45.8125 21.7187 44.7188 21.1562 43.7812L30.0312 34.9062C31.0312 35.5937 32.25 36 33.5625 36C34.5937 36 35.5625 35.7187 36.4062 35.2812L45.2188 44.0938C44.7812 44.9688 44.5 45.9375 44.5 46.9688C44.5 50.4375 47.3438 53.2812 50.8125 53.2812C54.2813 53.2812 57.125 50.4375 57.125 46.9688C57.125 45.6562 56.7188 44.4375 56.0625 43.4375L64.4063 35.0938C65.3438 35.6562 66.4375 36 67.5938 36C71.0938 36 73.9375 33.1562 73.9375 29.6875ZM15.75 50.125C14 50.125 12.5625 48.6875 12.5625 46.9375C12.5625 45.1875 14 43.75 15.75 43.75C16.625 43.75 17.4062 44.0938 18 44.6875C18.5625 45.25 18.9375 46.0625 18.9375 46.9375C18.9375 48.7187 17.5 50.125 15.75 50.125ZM33.5625 32.8437C31.8125 32.8437 30.375 31.4062 30.375 29.6562C30.375 27.9062 31.8125 26.4687 33.5625 26.4687C35.3125 26.4687 36.75 27.9062 36.75 29.6562C36.75 31.4375 35.3125 32.8437 33.5625 32.8437ZM50.8438 50.125C49.0938 50.125 47.6562 48.6875 47.6562 46.9375C47.6562 45.1875 49.0938 43.75 50.8438 43.75C52.5938 43.75 54.0312 45.1875 54.0312 46.9375C54 48.7187 52.5938 50.125 50.8438 50.125ZM65.375 31.9062C64.8125 31.3437 64.4375 30.5312 64.4375 29.6562C64.4375 27.9062 65.875 26.4687 67.625 26.4687C69.375 26.4687 70.8125 27.9062 70.8125 29.6562C70.8125 31.4062 69.375 32.8437 67.625 32.8437C66.75 32.8437 65.9375 32.5 65.375 31.9062Z" fill="white"/>
<path d="M2.96875 66.4688C3.90625 66.4688 4.65625 65.7188 4.65625 64.7812V6.90625C4.65625 5.96875 3.90625 5.21875 2.96875 5.21875C2.03125 5.21875 1.28125 5.96875 1.28125 6.90625V64.7812C1.28125 65.7188 2.03125 66.4688 2.96875 66.4688Z" fill="white"/>
<path d="M11.7813 71.4062H2.96875C2.03125 71.4062 1.28125 72.1562 1.28125 73.0937C1.28125 74.0312 2.03125 74.7813 2.96875 74.7813H11.8125C12.75 74.7813 13.5 74.0312 13.5 73.0937C13.5 72.1562 12.7188 71.4062 11.7813 71.4062Z" fill="white"/>
<path d="M28.0938 71.4062H19.2813C18.3438 71.4062 17.5938 72.1562 17.5938 73.0937C17.5938 74.0312 18.3438 74.7813 19.2813 74.7813H28.125C29.0625 74.7813 29.8125 74.0312 29.8125 73.0937C29.8125 72.1562 29.0313 71.4062 28.0938 71.4062Z" fill="white"/>
<path d="M44.4063 71.4062H35.5625C34.625 71.4062 33.875 72.1562 33.875 73.0937C33.875 74.0312 34.625 74.7813 35.5625 74.7813H44.4063C45.3438 74.7813 46.0938 74.0312 46.0938 73.0937C46.0938 72.1562 45.3438 71.4062 44.4063 71.4062Z" fill="white"/>
<path d="M60.7187 71.4062H51.875C50.9375 71.4062 50.1875 72.1562 50.1875 73.0937C50.1875 74.0312 50.9375 74.7813 51.875 74.7813H60.7187C61.6562 74.7813 62.4062 74.0312 62.4062 73.0937C62.4062 72.1562 61.6562 71.4062 60.7187 71.4062Z" fill="white"/>
<path d="M77.0312 71.4062H68.1875C67.25 71.4062 66.5 72.1562 66.5 73.0937C66.5 74.0312 67.25 74.7813 68.1875 74.7813H77.0312C77.9687 74.7813 78.7187 74.0312 78.7187 73.0937C78.7187 72.1562 77.9687 71.4062 77.0312 71.4062Z" fill="white"/>
</svg>
