<svg width="80" height="80" viewBox="0 0 80 80" fill="none" xmlns="http://www.w3.org/2000/svg">
<path d="M16.4786 13.3426C16.7027 13.6817 16.9488 14.008 17.1958 14.3328L33.2288 35.6518C33.3629 35.827 33.5061 35.9995 33.6757 36.1498C34.4431 36.8223 35.2851 37.2684 36.1761 37.4756C36.6399 37.5841 37.067 37.6323 37.46 37.6323C39.0289 37.6323 40.0498 36.8676 40.6647 36.1427C41.6514 34.9772 42.1693 33.5855 42.1621 32.1194C42.1395 26.849 42.1083 21.5779 42.0763 16.3076L42.0217 7.0075C42.0182 6.25572 41.9373 5.56117 41.7741 4.8845V4.88377C41.6024 4.17441 41.3371 3.24874 40.8024 2.38336C40.5817 2.02654 40.2178 1.5081 39.6022 1.11935C38.9445 0.705765 38.304 0.407232 37.6416 0.205014L37.1244 0.0561111L35.5305 0L35.3326 0.160416C34.5602 0.367428 33.8332 0.637742 33.1267 0.900138L32.5598 1.10947C28.0506 2.74015 23.5414 4.37445 19.0351 6.00948C18.0214 6.37556 17.1538 6.94299 16.458 7.69419C15.56 8.6617 15.2415 9.86684 15.5366 11.1806C15.7025 11.9212 16.0197 12.6488 16.4786 13.3426ZM18.5881 9.66959C18.9719 9.25543 19.4414 8.95181 20.0245 8.74116C24.5317 7.10541 29.0395 5.47256 33.5502 3.84098L34.1388 3.62398C34.8915 3.34448 35.6028 3.07994 36.323 2.90543L36.7989 2.98565C37.2081 3.11044 37.6188 3.30409 38.0537 3.57793C38.1325 3.62761 38.2233 3.73685 38.331 3.9106C38.6474 4.42341 38.8212 5.03485 38.9496 5.56553C39.0594 6.02081 39.1141 6.49687 39.1162 7.02242L39.1709 16.3254C39.2028 21.5942 39.2346 26.8625 39.2567 32.1328C39.2602 32.9088 38.9885 33.626 38.448 34.2643C38.1686 34.5928 37.7819 34.8666 36.8358 34.646C36.4079 34.5467 36.0002 34.3233 35.5356 33.8856L19.6933 12.8184L19.5103 12.5765C19.3011 12.3013 19.0917 12.0268 18.9017 11.7396C18.635 11.3359 18.4611 10.9451 18.371 10.5435C18.2746 10.1144 18.3824 9.89171 18.5881 9.66959Z" fill="white"/>
<path d="M34.3007 50.2391C34.7554 49.8944 35.1016 49.4276 35.3577 48.8105C35.5826 48.2714 35.6592 47.7451 35.7209 47.3238C35.9202 45.976 35.5187 44.7105 34.5583 43.6608C33.9646 43.0139 33.2559 42.4847 32.4508 42.086L29.961 40.8575C25.2773 38.5465 20.5936 36.2355 15.9035 33.9372C14.8984 33.445 13.7811 33.184 12.5831 33.1612H12.5823C11.839 33.1591 11.229 33.2932 10.6913 33.6053C9.86853 34.087 9.20885 34.7167 8.72859 35.4787C8.39315 36.0121 8.20009 36.5752 8.15476 37.1541C8.09448 37.9301 8.02925 38.7047 7.96388 39.48L7.09922 49.6887L7 51.7443L7.22837 52.8877C7.29156 53.1871 7.35751 53.4851 7.45397 53.773C7.77386 54.7348 8.5207 55.4159 9.55634 55.6868C9.9323 55.7862 10.3183 55.8357 10.7219 55.8357C11.063 55.8357 11.417 55.8003 11.7873 55.7294C12.071 55.6755 12.3519 55.6031 12.632 55.5308C12.7944 55.4882 12.9563 55.4456 13.1151 55.4102L19.5162 54.0284C23.7104 53.1246 27.904 52.2211 32.0975 51.3117C32.8474 51.1499 33.5694 50.7981 34.3007 50.2391ZM18.904 51.1882L14.5437 52.1274C13.8578 52.275 13.1711 52.4211 12.4831 52.5742C12.2873 52.6182 12.0937 52.6679 11.9 52.7189C11.6822 52.7757 11.4645 52.8325 11.2432 52.8751C10.868 52.9474 10.5602 52.946 10.2104 52.8552C10.1488 52.6707 10.1119 52.4792 10.0713 52.289L9.90543 51.5698V50.4434C9.94305 50.3129 9.98838 50.137 10.0068 49.9284L10.8594 39.7239C10.9254 38.9422 10.9913 38.1612 11.0516 37.3797C11.0567 37.313 11.0765 37.203 11.1879 37.0257C11.4192 36.6583 11.7369 36.3596 12.1554 36.115C12.1894 36.0943 12.2725 36.0553 12.5292 36.0666C13.2996 36.0808 14.0053 36.2425 14.626 36.5461C19.3132 38.843 23.9941 41.1525 28.6758 43.4622L31.1634 44.6908C31.6443 44.929 32.067 45.244 32.4168 45.6241C32.7899 46.0328 32.9183 46.413 32.846 46.9011C32.802 47.2045 32.7601 47.4912 32.6757 47.6941C32.5977 47.8813 32.5466 47.9239 32.5416 47.9267C32.1479 48.2274 31.8118 48.4006 31.4826 48.4715C27.2898 49.3809 23.0975 50.2846 18.904 51.1882Z" fill="white"/>
<path d="M73.8682 57.3297C73.4191 55.6669 71.9913 55.047 71.5181 54.8427C71.2649 54.7321 70.9989 54.6455 70.7335 54.5618L70.5733 54.5107C70.4534 54.4725 70.3314 54.4412 70.2094 54.41L51.7143 48.6204C50.8098 48.341 49.8763 48.3098 48.94 48.5339C47.2951 48.9227 46.1062 50.1753 45.9104 51.7258C45.7472 53.0254 46.0097 54.2823 46.6694 55.3605L51.2864 62.8908C52.9421 65.5876 54.5976 68.2846 56.2489 70.9843C56.7717 71.8397 57.4435 72.5888 58.3003 73.2726C58.5862 73.501 58.9004 73.6981 59.2168 73.874C59.7581 74.1749 60.3326 74.3267 60.9333 74.3267C61.1419 74.3267 61.3533 74.3083 61.5669 74.2713C62.4953 74.1124 63.3877 73.7308 64.2999 73.1024C64.585 72.9051 64.8454 72.6498 65.0596 72.3561L72.5629 61.9076C73.1056 61.1544 73.5014 60.279 73.7737 59.2377C73.8121 59.0902 73.8397 58.9399 73.8915 58.6517L73.9184 57.7084L73.8682 57.3297ZM71.0038 58.2915C70.9918 58.3609 70.9812 58.4305 70.9627 58.5014C70.7797 59.2022 70.5393 59.7456 70.2051 60.2095L62.6478 70.7134C62.0861 71.0992 61.5868 71.3205 61.0774 71.407C60.9036 71.4368 60.776 71.4169 60.6262 71.3333C60.4483 71.2353 60.2716 71.129 60.1127 71.0027C59.5246 70.5331 59.0714 70.0309 58.7274 69.4691C57.0754 66.768 55.4191 64.0697 53.7627 61.3714L49.1479 53.8453C48.8266 53.319 48.7109 52.7459 48.7931 52.089C48.8364 51.7443 49.1422 51.4719 49.6118 51.3599C49.8047 51.3144 49.9934 51.2903 50.1785 51.2903C50.4048 51.2903 50.6268 51.3259 50.8474 51.3939L69.1602 57.1338C69.2694 57.1678 69.3794 57.1963 69.4894 57.2246L69.8604 57.3339C70.0285 57.3863 70.1987 57.4375 70.359 57.5069L70.3619 57.5084C70.7903 57.6942 70.947 57.8447 71.013 57.9581L71.0038 58.2915Z" fill="white"/>
<path d="M37.9182 52.01C36.5002 52.1263 35.2468 52.7249 34.2928 53.7436C30.0289 58.2933 25.785 62.8585 21.5454 67.4267C20.726 68.309 20.138 69.3915 19.7975 70.6456C19.6159 71.3152 19.6146 71.9209 19.7925 72.494C20.0011 73.1751 20.2827 73.741 20.6537 74.222C21.2609 75.0122 22.024 75.5527 22.9193 75.828C26.9072 77.0622 30.895 78.2893 34.8843 79.5122C35.2667 79.6301 35.656 79.7278 36.0455 79.8257L36.5385 79.952L38.5132 80.0002L38.8395 79.9691L39.0026 79.9151C40.2838 79.7081 41.2243 78.905 41.6563 77.6509C41.8472 77.1004 41.9437 76.5231 41.9437 75.9329L41.94 75.4236C41.9373 75.1881 41.9344 74.9541 41.938 74.72L42.0933 64.829C42.1379 62.0342 42.1826 59.2395 42.216 56.4447C42.2309 55.2246 41.7869 54.104 40.9329 53.2088C40.1 52.332 39.0503 51.9121 37.9182 52.01ZM39.3106 56.4107C39.2772 59.2012 39.2325 61.9918 39.1886 64.7821L39.0326 74.6788C39.0289 74.937 39.0318 75.1967 39.0346 75.4548L39.0382 75.9329C39.0382 76.1982 38.9957 76.4565 38.9105 76.7018C38.8134 76.9842 38.7246 77.0211 38.5395 77.048C38.4473 77.0593 38.365 77.0763 38.2927 77.0948H37.091L36.7549 77.0083C36.4143 76.9232 36.0731 76.8381 35.7369 76.7345C31.7491 75.5116 27.7626 74.2845 23.7754 73.0516C23.4612 72.9551 23.193 72.758 22.9561 72.4514C22.7994 72.2472 22.6767 71.9905 22.5688 71.6387C22.5688 71.6387 22.554 71.5804 22.6008 71.4089C22.8171 70.6129 23.1782 69.9377 23.6748 69.4043C27.9116 64.839 32.1527 60.2766 36.4122 55.7297C36.8712 55.2403 37.4578 54.9637 38.1544 54.9069C38.3245 54.8855 38.5487 54.9155 38.8282 55.212C39.1588 55.558 39.3163 55.9496 39.3106 56.4093V56.4107Z" fill="white"/>
<path d="M48.2999 44.9026H48.3014C48.6015 44.9693 48.9079 45.0075 49.2256 45.0444L49.8166 45.1211L50.3365 45.0431C50.6557 45.0018 50.9799 44.955 51.2984 44.8657C55.6174 43.6399 59.9344 42.4086 64.2522 41.1756L69.3466 39.7229C70.4184 39.418 71.4272 38.8747 72.4294 38.0632C73.4658 37.2247 73.9488 36.048 73.8253 34.6569C73.7573 33.9115 73.5827 33.1985 73.309 32.5417C73.187 32.2467 73.0167 31.9692 72.816 31.7359L65.81 23.6786C65.3516 23.1508 64.8984 22.6188 64.4459 22.0868L63.8017 21.33C63.2436 20.6774 62.5711 20.2064 61.8022 19.9312C60.4253 19.4353 59.0961 19.641 57.9583 20.5184C57.4887 20.8802 57.0759 21.3172 56.7311 21.8194C56.6289 21.9684 56.5325 22.1216 56.4367 22.2748L45.9954 38.3086C45.491 39.0832 45.2166 39.9514 45.1789 40.8934C45.1051 42.8909 46.3302 44.4642 48.2999 44.9026ZM48.4291 39.8946L56.2729 27.8566L58.8988 23.8176C58.9733 23.6978 59.0479 23.5786 59.1266 23.4637C59.3011 23.2098 59.4989 22.999 59.7317 22.8195C60.0799 22.5536 60.3842 22.5103 60.8226 22.6663C61.1127 22.7699 61.3645 22.9508 61.5929 23.2182L62.2328 23.9694C62.6924 24.5092 63.1521 25.0491 63.6166 25.5838L70.6263 33.6568C70.7902 34.0498 70.8901 34.4632 70.9314 34.9172C70.9745 35.3997 70.8369 35.6145 70.6014 35.8047C69.9098 36.365 69.2388 36.7325 68.5501 36.9282L63.455 38.3824C59.1387 39.6138 54.8231 40.8452 50.5117 42.0695C50.333 42.1192 50.1463 42.1376 49.964 42.1618L49.7888 42.1859L49.5605 42.1574C49.3442 42.1319 49.1342 42.1106 48.9298 42.0653C48.3297 41.9319 48.061 41.5929 48.0822 41.0041C48.0986 40.5912 48.2128 40.228 48.4291 39.8946Z" fill="white"/>
</svg>
