<svg width="80" height="80" viewBox="0 0 80 80" fill="none" xmlns="http://www.w3.org/2000/svg">
<path d="M40.4195 10.8856L62.3657 25.141C62.5702 25.2738 62.6792 25.4915 62.6792 25.719V54.2856C62.6792 54.5464 62.5334 54.7733 62.319 54.8893L40.3725 69.1447C40.1217 69.3076 39.8052 69.2872 39.581 69.1142L17.6347 54.8589C17.4302 54.726 17.3213 54.5083 17.3213 54.2809V25.7142C17.3213 25.4534 17.4671 25.2265 17.6814 25.1106L39.6279 10.8551C39.8787 10.6922 40.1953 10.7126 40.4195 10.8856ZM50.6246 19.1446L40.0002 12.2434L18.6927 26.0839V53.9159L40.0002 67.7564L61.3078 53.9159V26.0839L50.6246 19.1446Z" fill="white"/>
<path d="M40.0001 19.1028L25.0042 28.8434V51.1562L40.0001 60.8968L54.9958 51.1562V28.8434L40.0001 19.1028ZM39.5808 17.745C39.805 17.5719 40.1228 17.5498 40.3736 17.7127L56.0071 27.8701C56.2214 27.9861 56.3672 28.213 56.3672 28.4737V51.5259C56.3671 51.7501 56.2569 51.9697 56.055 52.1009L40.4193 62.2547C40.1951 62.4277 39.8774 62.4499 39.6266 62.2869L23.9929 52.1296C23.7786 52.0136 23.6328 51.7867 23.6328 51.5259V28.4784C23.6328 28.243 23.747 28.0273 23.945 27.8987L39.5808 17.745Z" fill="white"/>
<path d="M18.289 25.0876C17.4636 24.728 16.9069 25.9803 17.7337 26.3411L24.0454 29.1007C24.8657 29.4587 25.4149 28.2025 24.6007 27.8472L18.289 25.0876Z" fill="white"/>
<path d="M40.6859 11.4285C40.6859 10.5258 39.3145 10.5258 39.3145 11.4285V18.288C39.3145 19.1908 40.6859 19.1908 40.6859 18.288V11.4285Z" fill="white"/>
<path d="M62.2666 26.3412C63.0885 25.9831 62.542 24.7291 61.7202 25.0877L55.4084 27.8473C54.5865 28.2061 55.1333 29.4593 55.9548 29.1008L62.2666 26.3412Z" fill="white"/>
<path d="M61.7202 54.9123C62.5422 55.2704 63.0884 54.0175 62.2666 53.6589L55.9548 50.8993C55.1333 50.5407 54.5865 51.7939 55.4084 52.1527L61.7202 54.9123Z" fill="white"/>
<path d="M39.3145 68.5712C39.3145 69.474 40.6859 69.474 40.6859 68.5712V61.7117C40.6859 60.809 39.3145 60.809 39.3145 61.7117V68.5712Z" fill="white"/>
<path d="M17.7336 53.6589C16.9117 54.017 17.4583 55.271 18.28 54.9123L24.5917 52.1527C25.4137 51.7939 24.8668 50.5407 24.0453 50.8993L17.7336 53.6589Z" fill="white"/>
</svg>
