<svg width="80" height="80" viewBox="0 0 80 80" fill="none" xmlns="http://www.w3.org/2000/svg">
<g clip-path="url(#clip0_142_24064)">
<path d="M75.9331 24.8212L75.9336 24.8223C77.9713 29.6324 79.0002 34.7362 79.0002 40.0002C79.0002 45.2641 77.9713 50.3678 75.9337 55.1779C73.9638 59.8233 71.1518 63.9973 67.5745 67.5745L67.5737 67.5753C63.9968 71.162 59.8235 73.9735 55.1792 75.9331L55.1781 75.9336C50.368 77.9713 45.2642 79.0002 40.0002 79.0002C34.7363 79.0002 29.6326 77.9713 24.8225 75.9337C20.1771 73.9638 16.0031 71.1518 12.4259 67.5745L12.4251 67.5737C8.83839 63.9968 6.02691 59.8235 4.06727 55.1792L4.06682 55.1781C2.02911 50.368 1.0002 45.2642 1.0002 40.0002C1.0002 34.7362 2.02911 29.6324 4.06682 24.8223L4.06727 24.8212C6.02691 20.1768 8.83839 16.0036 12.4251 12.4267L12.4267 12.4251C16.0036 8.83839 20.1768 6.02691 24.8212 4.06727L24.8223 4.06682C29.6324 2.02911 34.7362 1.0002 40.0002 1.0002C45.2642 1.0002 50.368 2.02911 55.1781 4.06682L55.1792 4.06727C59.8235 6.02691 63.9968 8.83839 67.5737 12.4251L67.5753 12.4267C71.162 16.0036 73.9735 20.1768 75.9331 24.8212ZM6.9002 40.0002C6.9002 58.252 21.7484 73.1002 40.0002 73.1002C58.252 73.1002 73.1002 58.252 73.1002 40.0002C73.1002 21.7484 58.252 6.9002 40.0002 6.9002C21.7484 6.9002 6.9002 21.7484 6.9002 40.0002Z" stroke="white" stroke-width="1.6"/>
<path d="M40.001 15C33.319 15 27.0456 17.6047 22.3214 22.3204C17.5972 27.0446 15.001 33.318 15.001 40C15.001 46.682 17.6057 52.9554 22.3214 57.6796C27.0456 62.4038 33.3275 65 40.001 65C46.6745 65 52.9564 62.3953 57.6806 57.6796C62.4048 52.9554 65.001 46.682 65.001 40C65.001 33.318 62.3963 27.0446 57.6806 22.3204C52.9564 17.5962 46.683 15 40.001 15ZM40.001 61.8165C27.9734 61.8165 18.1845 52.0276 18.1845 40C18.1845 27.9724 27.9734 18.1835 40.001 18.1835C52.0286 18.1835 61.8175 27.9724 61.8175 40C61.8175 52.0276 52.0286 61.8165 40.001 61.8165Z" fill="white"/>
<path d="M40 47.5C44.1421 47.5 47.5 44.1421 47.5 40C47.5 35.8579 44.1421 32.5 40 32.5C35.8579 32.5 32.5 35.8579 32.5 40C32.5 44.1421 35.8579 47.5 40 47.5Z" fill="white"/>
</g>
<defs>
<clipPath id="clip0_142_24064">
<rect width="80" height="80" fill="white"/>
</clipPath>
</defs>
</svg>
