<svg width="80" height="80" viewBox="0 0 80 80" fill="none" xmlns="http://www.w3.org/2000/svg">
<path d="M40 1.03125C18.5312 1.03125 1.03125 18.5312 1.03125 40C1.03125 61.4688 18.5312 78.9688 40 78.9688C61.4688 78.9688 78.9688 61.4688 78.9688 40C78.9375 18.5312 61.4688 1.0625 40 1.03125ZM40 75.8438C20.25 75.8438 4.15625 59.7812 4.15625 40C4.15625 20.2188 20.25 4.15625 40 4.15625C59.75 4.1875 75.8125 20.25 75.8438 40C75.8438 59.75 59.75 75.8438 40 75.8438Z" fill="white"/>
<path d="M40 15.0312C41.4062 15.0312 42.5313 13.9062 42.5313 12.5C42.5313 11.0938 41.4062 9.96875 40 9.96875C38.5937 9.96875 37.4688 11.0938 37.4688 12.5C37.4688 13.9062 38.5937 15.0312 40 15.0312Z" fill="white"/>
<path d="M12.5312 37.4688C11.125 37.4688 10 38.5937 10 40C10 41.4062 11.125 42.5313 12.5312 42.5313C13.9375 42.5313 15.0625 41.4062 15.0625 40C15.0625 38.5937 13.9375 37.4688 12.5312 37.4688Z" fill="white"/>
<path d="M40 64.9688C38.5937 64.9688 37.4688 66.0938 37.4688 67.5C37.4688 68.9063 38.5937 70.0313 40 70.0313C41.4062 70.0313 42.5313 68.9063 42.5313 67.5C42.5313 66.0938 41.4062 64.9688 40 64.9688Z" fill="white"/>
<path d="M67.4687 37.4688C66.0625 37.4688 64.9375 38.5937 64.9375 40C64.9375 41.4062 66.0625 42.5313 67.4687 42.5313C68.875 42.5313 70 41.4062 70 40C70 38.5937 68.875 37.4688 67.4687 37.4688Z" fill="white"/>
<path d="M22.3438 22.3438C22.8125 21.875 23.0938 21.2188 23.0938 20.5625C23.0938 19.875 22.8438 19.25 22.3438 18.7812C21.875 18.3125 21.2188 18.0312 20.5625 18.0312C19.875 18.0312 19.25 18.2812 18.7812 18.7812C18.3125 19.25 18.0312 19.9063 18.0312 20.5625C18.0312 21.25 18.2812 21.875 18.7812 22.3438C19.6875 23.25 21.4375 23.25 22.3438 22.3438Z" fill="white"/>
<path d="M20.5625 56.9062C19.875 56.9062 19.25 57.1562 18.7812 57.6562C17.8125 58.6562 17.8125 60.25 18.7812 61.2187C19.7188 62.1562 21.4063 62.1562 22.3438 61.2187C23.3125 60.25 23.3125 58.625 22.3438 57.6562C21.875 57.1562 21.25 56.9062 20.5625 56.9062Z" fill="white"/>
<path d="M57.6562 57.6562C56.6875 58.6562 56.6875 60.25 57.6562 61.2187C58.5938 62.1562 60.2812 62.1562 61.2187 61.2187C61.6875 60.75 61.9688 60.0937 61.9688 59.4375C61.9688 58.75 61.7187 58.125 61.2187 57.6562C60.2812 56.6875 58.5938 56.6875 57.6562 57.6562Z" fill="white"/>
<path d="M61.2187 22.375C61.6875 21.9062 61.9688 21.25 61.9688 20.5938C61.9688 19.9063 61.7187 19.2813 61.2187 18.8125C60.7187 18.3125 60.0937 18.0625 59.4375 18.0625C58.7812 18.0625 58.1562 18.3125 57.6562 18.8125C56.6875 19.8125 56.6875 21.4062 57.6562 22.375C58.625 23.3437 60.2187 23.3437 61.2187 22.375Z" fill="white"/>
<path d="M34.2188 35.0623C33.8125 35.5311 33.4375 36.0623 33.1562 36.6873C32.6875 37.6561 32.4062 38.7498 32.375 39.8436C32.375 39.9061 32.375 39.9686 32.375 39.9998C32.375 44.1873 35.7813 47.6248 40 47.6248C44.2188 47.6248 47.625 44.2186 47.625 39.9998C47.625 39.4686 47.5625 38.9373 47.4687 38.4373L57.7188 34.4373C58.5312 34.1248 58.9062 33.2186 58.5938 32.4061C58.2812 31.5936 57.375 31.2186 56.5625 31.5311L46.1562 35.5936C44.7812 33.6561 42.5313 32.4061 39.9688 32.4061C38.9063 32.4061 37.8438 32.6561 36.875 33.0936C35.8438 33.5623 34.9375 34.2186 34.2188 35.0623ZM40 44.4998C37.5313 44.4998 35.5 42.4998 35.5 39.9998C35.5 37.5311 37.5 35.4998 40 35.4998C42.4688 35.4998 44.5 37.5311 44.5 39.9998C44.5 42.4686 42.4688 44.4998 40 44.4998Z" fill="white"/>
<rect x="38.4375" y="45.625" width="3.125" height="17.5" rx="1.5625" fill="white"/>
</svg>
