<svg width="1168" height="380" viewBox="0 0 1168 380" fill="none" xmlns="http://www.w3.org/2000/svg">
<path d="M0 307.253V23.9496C0 10.6775 10.7 0 24 0H889.1C895.3 0 901.2 2.39494 905.6 6.58612L918.1 23.3508C922.6 29.438 929.8 32.9307 937.3 32.9307H1143.5C1156.8 32.9307 1167.5 43.6082 1167.5 56.8802V61.4706V356.05C1167.5 369.322 1156.8 380 1143.5 380H56C53.5 380 51.1 378.803 49.6 376.807L1.6 312.043C0.6 310.646 0 308.95 0 307.253Z" fill="#026A80"/>
<mask id="mask0_209_3875" style="mask-type:alpha" maskUnits="userSpaceOnUse" x="0" y="0" width="1168" height="380">
<path d="M0 307.253V23.9496C0 10.6775 10.7 0 24 0H889.1C895.3 0 901.2 2.39494 905.6 6.58612L918.1 23.3508C922.6 29.438 929.8 32.9307 937.3 32.9307H1143.5C1156.8 32.9307 1167.5 43.6082 1167.5 56.8802V61.4706V356.05C1167.5 369.322 1156.8 380 1143.5 380H56C53.5 380 51.1 378.803 49.6 376.807L1.6 312.043C0.6 310.646 0 308.95 0 307.253Z" fill="#fff"/>
</mask>
<g mask="url(#mask0_209_3875)">
</g>
</svg>
