<svg width="32" height="32" viewBox="0 0 32 32" fill="none" xmlns="http://www.w3.org/2000/svg">
<path d="M11.36 18.4613C9.97328 18.4613 8.84262 17.2013 8.84262 15.66C8.84262 14.1173 9.94528 12.8573 11.3613 12.8573C12.7613 12.8573 13.9079 14.1173 13.8799 15.66C13.8799 17.2013 12.7613 18.4613 11.36 18.4613ZM20.6586 18.46C19.2719 18.46 18.1386 17.2 18.1386 15.6587C18.1386 14.116 19.2439 12.856 20.6586 12.856C22.0586 12.856 23.2053 14.116 23.1786 15.6587C23.1786 17.2 22.0733 18.46 20.6586 18.46ZM13.4999 5.76135L13.0893 5.01068L12.2439 5.15201C10.3282 5.47146 8.4637 6.04543 6.69995 6.85868L6.39595 6.99868L6.20662 7.27868C2.72262 12.416 1.76662 17.476 2.23995 22.4453L2.29195 22.988L2.73195 23.308C4.78155 24.8119 7.07072 25.9582 9.50262 26.6987L10.556 27.0214L12.0399 23.4C14.5866 24.0293 17.4133 24.0293 19.9586 23.4L21.4346 27.0227L22.4879 26.7C24.9218 25.9612 27.2123 24.8137 29.2613 23.3067L29.6973 22.9893L29.7506 22.4534C30.3319 16.6933 28.8213 11.676 25.8066 7.27468L25.6173 6.99735L25.3133 6.85868C23.55 6.04913 21.6878 5.4753 19.7746 5.15201L18.9506 5.01468L18.5319 5.73735C18.4146 5.93735 18.2959 6.16401 18.1813 6.39468C16.7349 6.24527 15.277 6.24527 13.8306 6.39468C13.7173 6.16801 13.6039 5.94935 13.4999 5.76135ZM8.95328 22.1467C9.21595 22.2987 9.49328 22.448 9.76662 22.584L9.16795 24.0453C7.54872 23.4551 6.01247 22.6583 4.59728 21.6747C4.29728 17.4907 5.14795 13.268 8.01595 8.91468C9.22629 8.38163 10.488 7.97373 11.7813 7.69735C11.8613 7.86401 11.936 8.02801 11.9973 8.17201L12.3613 9.02935L13.2839 8.89468C15.0921 8.62979 16.9292 8.62979 18.7373 8.89468L19.6573 9.02801L20.02 8.17201C20.0826 8.02268 20.156 7.86001 20.2333 7.69735C21.5359 7.97735 22.7973 8.39068 24.004 8.91735C26.504 12.6773 27.7653 16.872 27.3986 21.6733C25.9836 22.6591 24.4462 23.4565 22.8253 24.0453L22.2319 22.5853C22.5066 22.4493 22.784 22.3 23.0493 22.1467C23.7026 21.7707 24.4053 21.3013 24.8533 20.8533L23.1466 19.1467C22.9293 19.3653 22.4493 19.7067 21.8439 20.056C21.2519 20.3973 20.6639 20.6733 20.2879 20.7973C17.6173 21.6813 14.384 21.6813 11.712 20.7973C11.3373 20.6733 10.7493 20.3973 10.1573 20.056C9.55195 19.708 9.07195 19.3653 8.85328 19.1467L7.14662 20.8533C7.59595 21.3013 8.29995 21.7707 8.95328 22.1467Z" fill="white"/>
</svg>
