<svg width="32" height="32" viewBox="0 0 32 32" fill="none" xmlns="http://www.w3.org/2000/svg">
<path d="M20.45 13.32C20.3269 13.3675 20.2145 13.439 20.1191 13.5302C20.0237 13.6213 19.9474 13.7305 19.8944 13.8513C19.8414 13.9722 19.8128 14.1023 19.8104 14.2343C19.8079 14.3662 19.8316 14.4973 19.88 14.62C20.2095 15.4749 20.2356 16.4169 19.9538 17.2887C19.6721 18.1605 19.0996 18.9091 18.3322 19.4094C17.5647 19.9098 16.6487 20.1315 15.7374 20.0375C14.8261 19.9435 13.9746 19.5396 13.3254 18.8931C12.6762 18.2467 12.2685 17.397 12.1706 16.4861C12.0727 15.5752 12.2904 14.6583 12.7874 13.8887C13.2844 13.119 14.0305 12.5433 14.9011 12.2578C15.7716 11.9723 16.7138 11.9942 17.57 12.32C17.818 12.4142 18.0932 12.406 18.3352 12.2972C18.5771 12.1884 18.7659 11.988 18.86 11.74C18.9542 11.492 18.946 11.2168 18.8372 10.9749C18.7284 10.733 18.528 10.5442 18.28 10.45C16.9972 9.96476 15.5868 9.93367 14.2838 10.3619C12.9808 10.7902 11.8638 11.652 11.119 12.8037C10.3742 13.9554 10.0464 15.3276 10.1904 16.6916C10.3343 18.0556 10.9412 19.3291 11.91 20.3C13.035 21.4236 14.56 22.0547 16.15 22.0547C17.74 22.0547 19.265 21.4236 20.39 20.3C21.2138 19.4785 21.7809 18.4351 22.0223 17.2971C22.2638 16.159 22.1692 14.9753 21.75 13.89C21.7025 13.7669 21.6311 13.6545 21.5399 13.5591C21.4487 13.4637 21.3395 13.3873 21.2187 13.3344C21.0979 13.2814 20.9677 13.2528 20.8358 13.2504C20.7039 13.2479 20.5728 13.2716 20.45 13.32Z" fill="white"/>
<path d="M23 10C23.5523 10 24 9.55228 24 9C24 8.44772 23.5523 8 23 8C22.4477 8 22 8.44772 22 9C22 9.55228 22.4477 10 23 10Z" fill="white"/>
<path d="M28 9.00002C28.0003 7.69109 27.4872 6.43424 26.5711 5.49938C25.6549 4.56452 24.4087 4.0262 23.1 4.00002C18.4099 3.56941 13.6901 3.56941 9 4.00002C7.68766 3.99985 6.42787 4.51564 5.49245 5.43609C4.55703 6.35654 4.02099 7.60785 4 8.92002C3.63997 13.6065 3.63997 18.3136 4 23C3.99974 24.309 4.51277 25.5658 5.42893 26.5007C6.3451 27.4355 7.59132 27.9738 8.9 28C11.26 28.22 13.63 28.34 16 28.34C18.37 28.34 20.71 28.23 23.05 28C24.3537 27.9872 25.6007 27.4656 26.5254 26.5465C27.4501 25.6275 27.9792 24.3836 28 23.08C28.38 18.3944 28.38 13.6857 28 9.00002ZM26 23C26 23.7957 25.6839 24.5587 25.1213 25.1213C24.5587 25.684 23.7956 26 23 26H22.9C18.2776 26.45 13.6224 26.45 9 26C8.59921 26.0002 8.20245 25.92 7.83316 25.7643C7.46387 25.6085 7.12953 25.3804 6.84988 25.0933C6.57024 24.8061 6.35095 24.4659 6.20498 24.0927C6.05901 23.7194 5.98931 23.3207 6 22.92C5.64999 18.2866 5.64999 13.6334 6 9.00002C5.99982 8.59837 6.08029 8.20077 6.23665 7.8308C6.39301 7.46083 6.62208 7.12602 6.91025 6.84624C7.19843 6.56645 7.53986 6.34738 7.91429 6.20202C8.28872 6.05666 8.68852 5.98797 9.09 6.00002C11.3833 5.79336 13.6833 5.68669 15.99 5.68002C18.2967 5.67336 20.6333 5.78002 23 6.00002C23.4008 5.99988 23.7975 6.08005 24.1668 6.23579C24.5361 6.39153 24.8705 6.61969 25.1501 6.9068C25.4298 7.1939 25.649 7.53413 25.795 7.90739C25.941 8.28065 26.0107 8.67938 26 9.08002C26.38 13.7122 26.38 18.3678 26 23Z" fill="white"/>
</svg>
