<svg width="32" height="32" viewBox="0 0 32 32" fill="none" xmlns="http://www.w3.org/2000/svg">
<path d="M28.77 8.10997C28.7057 8.03029 28.6279 7.96258 28.54 7.90997C28.7632 7.47981 28.9184 7.01766 29 6.53997C29.0316 6.34857 29.0068 6.15213 28.9287 5.97457C28.8506 5.79702 28.7225 5.64602 28.56 5.53997C28.3968 5.43244 28.2056 5.37514 28.01 5.37514C27.8145 5.37514 27.6233 5.43244 27.46 5.53997C26.7664 5.99066 25.9922 6.30305 25.18 6.45997C24.2468 5.58399 23.0658 5.01775 21.7984 4.83875C20.5311 4.65974 19.2394 4.87671 18.1 5.45997C16.9108 6.08253 15.9615 7.08173 15.4005 8.30127C14.8396 9.5208 14.6988 10.8919 15 12.2C15.0531 12.4652 15.2093 12.6985 15.4344 12.8485C15.6594 12.9985 15.9348 13.053 16.2 13C16.4653 12.9469 16.6985 12.7907 16.8486 12.5657C16.9986 12.3406 17.0531 12.0652 17 11.8C16.7929 10.9315 16.8764 10.0191 17.2377 9.20265C17.599 8.38619 18.2181 7.71078 19 7.27997C19.8428 6.85215 20.8044 6.71819 21.732 6.89936C22.6597 7.08054 23.5002 7.56647 24.12 8.27997C24.2334 8.39394 24.3726 8.47889 24.5258 8.52764C24.679 8.57638 24.8417 8.58747 25 8.55997H25.25C25.1366 8.67743 25.0537 8.82087 25.0084 8.97778C24.9632 9.13469 24.9571 9.30028 24.9907 9.46009C25.0242 9.6199 25.0964 9.76907 25.2008 9.89456C25.3053 10.02 25.439 10.118 25.59 10.18C25.4617 10.2853 25.3616 10.4208 25.2988 10.5744C25.2359 10.7281 25.2123 10.8949 25.23 11.06C25.396 13.1905 25.0369 15.3292 24.1844 17.2888C23.3319 19.2483 22.0119 20.969 20.34 22.3C18.6253 23.7714 16.5503 24.7607 14.3276 25.1665C12.1048 25.5724 9.81416 25.3804 7.69005 24.61C9.379 24.327 10.9532 23.5711 12.23 22.43C12.3589 22.2829 12.4418 22.1012 12.4684 21.9075C12.4951 21.7137 12.4644 21.5164 12.38 21.34C12.2969 21.1651 12.1647 21.0182 11.9996 20.917C11.8345 20.8158 11.6436 20.7647 11.45 20.77C10.8798 20.7655 10.3171 20.6392 9.79971 20.3994C9.28229 20.1597 8.82212 19.8121 8.45005 19.38C8.7987 19.3128 9.13563 19.1949 9.45005 19.03C9.63807 18.9375 9.79231 18.7884 9.89099 18.6036C9.98968 18.4188 10.0278 18.2076 10 18C9.97317 17.7995 9.88614 17.6119 9.75046 17.462C9.61477 17.312 9.43681 17.2067 9.24005 17.16C8.58388 17.003 7.97237 16.6979 7.45236 16.268C6.93235 15.8381 6.51766 15.2949 6.24005 14.68C6.48005 14.68 6.72005 14.73 6.98005 14.74C7.19087 14.7556 7.40122 14.704 7.58088 14.5926C7.76055 14.4812 7.90029 14.3157 7.98005 14.12C8.05149 13.9243 8.06002 13.7111 8.00444 13.5103C7.94886 13.3095 7.83195 13.1311 7.67005 13C6.00005 11.48 5.59005 9.84997 5.83005 8.69997C7.71622 10.6965 10.1523 12.0886 12.83 12.7C12.9614 12.7249 13.0963 12.7238 13.2272 12.6966C13.3581 12.6694 13.4823 12.6166 13.5928 12.5414C13.7033 12.4662 13.7979 12.37 13.8712 12.2582C13.9445 12.1464 13.9951 12.0213 14.02 11.89C14.045 11.7586 14.0438 11.6237 14.0166 11.4928C13.9894 11.362 13.9367 11.2377 13.8615 11.1272C13.7863 11.0167 13.69 10.9221 13.5783 10.8488C13.4665 10.7755 13.3414 10.7249 13.21 10.7C10.4994 10.0648 8.09063 8.51434 6.39005 6.30997C6.30012 6.19598 6.18644 6.10294 6.05692 6.03732C5.92741 5.9717 5.78515 5.93507 5.64005 5.92997C5.49381 5.92455 5.34816 5.9513 5.21339 6.00832C5.07861 6.06534 4.958 6.15124 4.86005 6.25997C4.21239 7.11354 3.83649 8.1422 3.78121 9.21224C3.72592 10.2823 3.99381 11.3442 4.55005 12.26H4.46005C4.31223 12.3403 4.18708 12.4567 4.09618 12.5983C4.00528 12.7399 3.95158 12.9021 3.94005 13.07C3.92374 13.9116 4.08955 14.7467 4.42612 15.5183C4.7627 16.2898 5.26208 16.9794 5.89005 17.54C5.77344 17.6754 5.69523 17.8395 5.66358 18.0154C5.63192 18.1913 5.64797 18.3724 5.71005 18.54C6.28917 20.084 7.42295 21.3569 8.89005 22.11C7.32682 22.6982 5.6703 22.9997 4.00005 23C3.78181 23.0022 3.57029 23.0758 3.39777 23.2094C3.22525 23.3431 3.1012 23.5296 3.04454 23.7403C2.98788 23.9511 3.00173 24.1746 3.08398 24.3768C3.16622 24.5789 3.31234 24.7486 3.50005 24.86C6.06044 26.4336 8.99529 27.2933 12 27.35C15.5173 27.3097 18.9111 26.0477 21.6 23.78C23.4567 22.3016 24.9392 20.4069 25.9277 18.2492C26.9162 16.0916 27.3829 13.7315 27.29 11.36C28.0477 10.7935 28.6131 10.0081 28.91 9.10997C28.9775 8.94586 29.0001 8.76674 28.9755 8.591C28.9509 8.41527 28.88 8.24924 28.77 8.10997Z" fill="white"/>
</svg>
