<svg width="32" height="32" viewBox="0 0 32 32" fill="none" xmlns="http://www.w3.org/2000/svg">
<path d="M28.5902 4.29001C28.2802 4.02958 27.9051 3.85847 27.5052 3.79504C27.1053 3.73162 26.6956 3.77828 26.3202 3.93001L3.41023 13.1C3.07627 13.2387 2.79089 13.4733 2.59013 13.7741C2.38937 14.0749 2.28223 14.4284 2.28223 14.79C2.28223 15.1516 2.38937 15.5052 2.59013 15.806C2.79089 16.1067 3.07627 16.3413 3.41023 16.48L4.89023 17.09C5.13425 17.1932 5.40926 17.1954 5.65488 17.096C5.9005 16.9967 6.09664 16.8039 6.20023 16.56C6.25105 16.4386 6.27739 16.3083 6.27774 16.1767C6.27809 16.045 6.25245 15.9146 6.20228 15.7929C6.15211 15.6712 6.0784 15.5606 5.98538 15.4674C5.89236 15.3742 5.78187 15.3004 5.66023 15.25L4.56023 14.8L27.0702 5.80001C27.1048 5.7788 27.1446 5.76756 27.1852 5.76756C27.2258 5.76756 27.2656 5.7788 27.3002 5.80001C27.3329 5.82773 27.3575 5.86367 27.3716 5.90411C27.3856 5.94456 27.3886 5.98803 27.3802 6.03001L23.2702 25.21C23.2568 25.2783 23.2257 25.3419 23.1801 25.3945C23.1345 25.4472 23.0759 25.487 23.0102 25.51C22.9458 25.5356 22.8756 25.5435 22.8071 25.533C22.7385 25.5224 22.674 25.4938 22.6202 25.45L14.6202 19.21L22.4502 11.3C22.6175 11.1265 22.7165 10.8984 22.7289 10.6577C22.7413 10.417 22.6664 10.1799 22.5179 9.99C22.3695 9.80015 22.1574 9.6703 21.9208 9.62437C21.6842 9.57843 21.439 9.6195 21.2302 9.74001L9.75023 16.54C9.62272 16.5976 9.50873 16.6814 9.41562 16.7858C9.32251 16.8903 9.25235 17.0131 9.20969 17.1464C9.16702 17.2796 9.1528 17.4203 9.16793 17.5595C9.18307 17.6986 9.22723 17.8329 9.29756 17.9539C9.36789 18.0749 9.46282 18.1797 9.57622 18.2617C9.68961 18.3437 9.81895 18.4009 9.95586 18.4298C10.0928 18.4586 10.2342 18.4584 10.3711 18.4292C10.5079 18.3999 10.6371 18.3423 10.7502 18.26L15.5802 15.41L13.2302 17.8C13.0152 18.002 12.8476 18.2491 12.7393 18.5235C12.631 18.7979 12.5848 19.0928 12.6039 19.3872C12.623 19.6815 12.707 19.968 12.8499 20.2261C12.9927 20.4842 13.1909 20.7075 13.4302 20.88L21.4302 27.03C21.8513 27.355 22.3684 27.5308 22.9002 27.53C23.1834 27.528 23.4642 27.4772 23.7302 27.38C24.1122 27.2429 24.4526 27.0099 24.7188 26.7035C24.9849 26.3971 25.1679 26.0275 25.2502 25.63L29.3302 6.47001C29.4168 6.0737 29.3937 5.66127 29.2633 5.27714C29.1329 4.893 28.9002 4.55171 28.5902 4.29001Z" fill="white"/>
</svg>
