<svg width="233" height="47" viewBox="0 0 233 47" fill="none" xmlns="http://www.w3.org/2000/svg">
<g clip-path="url(#clip0_142_27078)">
<path d="M30.3225 39.6127V46.6655H20.4927V35.6542L30.3225 39.6127Z" fill="#EF4210"/>
<path d="M50.4542 0V9.95196L30.3225 18.2592V22.2734L0 9.75682V0L24.8522 10.7325L50.4542 0Z" fill="#EF4210"/>
<path d="M46.289 18.0641V46.6655H38.3196V38.5255L13.0509 28.2948V46.7213H5.05375V25.0611L0.0277678 22.9982L0 14.5237L20.0484 22.6358L38.3196 30.051V20.6845L46.289 18.0641Z" fill="#EF4210"/>
<path d="M171.911 3.26154L166.996 15.1649L162.831 13.4086L160.193 19.7366L164.386 21.4929L161.553 28.3505H168.912L170.661 24.1133L180.852 28.3505L177.131 19.43L173.272 17.8131L176.465 10.0913H177.437L184.99 28.3505H192.348L181.991 3.26154H171.911Z" fill="#EF4210"/>
<path d="M115.264 3.26154H108.35V28.3784H115.264V3.26154Z" fill="#EF4210"/>
<path d="M70.7524 3.34515V10.3143L81.332 13.1298V28.3505H88.2462V13.0462L98.798 10.2307V3.34515L84.7752 7.08062L70.7524 3.34515Z" fill="#EF4210"/>
<path d="M125.233 3.37305V10.3143L135.812 13.1299V28.3784H142.727V13.0462L153.306 10.2307V3.37305L139.283 7.08064L125.233 3.37305Z" fill="#EF4210"/>
<path d="M226.086 3.26154V21.4092L214.09 3.26154H205.649H202.983V3.31729V28.3505V28.4063H209.897V9.58953L222.476 28.3505H230.695H233V3.26154H226.086Z" fill="#EF4210"/>
<path d="M83.8312 41.6756H81.5542V40.1702H88.1907V41.6756H85.9137V46.8606H83.8034V41.6756H83.8312Z" fill="#EF4210"/>
<path d="M95.3826 45.1044H94.2441V46.8885H92.1338V40.1981H95.5215C97.5485 40.1981 98.8258 41.1459 98.8258 42.6791C98.8258 43.6548 98.2983 44.3796 97.3819 44.7978L98.9925 46.8885H96.7433L95.3826 45.1044ZM95.4104 41.6756H94.2441V43.6269H95.4104C96.2712 43.6269 96.7155 43.2646 96.7155 42.6513C96.7155 42.038 96.2712 41.6756 95.4104 41.6756Z" fill="#EF4210"/>
<path d="M108.128 45.5783H104.99L104.407 46.8885H102.269L105.546 40.1981H107.6L110.877 46.8885H108.683L108.128 45.5783ZM107.517 44.1845L106.573 42.038L105.629 44.1845H107.517Z" fill="#EF4210"/>
<path d="M114.653 40.1702H118.152C120.596 40.1702 122.289 41.4526 122.289 43.5154C122.289 45.5783 120.596 46.8606 118.152 46.8606H114.653V40.1702ZM118.069 45.3553C119.318 45.3553 120.179 44.6862 120.179 43.5154C120.179 42.3446 119.318 41.6756 118.069 41.6756H116.736V45.3553H118.069Z" fill="#EF4210"/>
<path d="M126.594 40.1702H128.704V46.8606H126.594V40.1702Z" fill="#EF4210"/>
<path d="M140.394 40.1702V46.8606H138.673L135.396 43.2924V46.8606H133.341V40.1702H135.063L138.34 43.7384V40.1702H140.394Z" fill="#EF4210"/>
<path d="M150.03 43.376H151.89V46.1637C151.029 46.7212 149.863 47.0279 148.78 47.0279C146.42 47.0279 144.698 45.5783 144.698 43.5433C144.698 41.5083 146.42 40.0587 148.836 40.0587C150.224 40.0587 151.335 40.4769 152.085 41.2853L150.752 42.3725C150.252 41.8707 149.669 41.6198 148.947 41.6198C147.669 41.6198 146.836 42.3725 146.836 43.5433C146.836 44.6584 147.697 45.4668 148.919 45.4668C149.308 45.4668 149.669 45.411 150.057 45.2438V43.376H150.03Z" fill="#EF4210"/>
</g>
<defs>
<clipPath id="clip0_142_27078">
<rect width="233" height="47" fill="white"/>
</clipPath>
</defs>
</svg>
