<svg width="208" height="42" viewBox="0 0 208 42" fill="none" xmlns="http://www.w3.org/2000/svg">
<path d="M27.0691 35.3987V41.7012H18.2939V31.8613L27.0691 35.3987Z" fill="#EF4210"/>
<path d="M45.0406 0V8.89324L27.069 16.3167V19.9039L0 8.71886V0L22.1857 9.59075L45.0406 0Z" fill="#EF4210"/>
<path d="M41.3224 16.1422V41.7009H34.2081V34.4269L11.6506 25.2846V41.7508H4.5115V22.3949L0.0247885 20.5515L0 12.9785L17.8973 20.2276L34.2081 26.854V18.4839L41.3224 16.1422Z" fill="#EF4210"/>
<path d="M153.466 2.91455L149.078 13.5516L145.36 11.9822L143.005 17.637L146.748 19.2064L144.22 25.3345H150.788L152.35 21.548L161.447 25.3345L158.126 17.3629L154.68 15.9181L157.531 9.01775H158.399L165.141 25.3345H171.71L162.464 2.91455H153.466Z" fill="white"/>
<path d="M102.897 2.91455H96.7246V25.3594H102.897V2.91455Z" fill="white"/>
<path d="M63.1611 2.98926V9.21702L72.6055 11.733V25.3345H78.7779V11.6583L88.1975 9.14228V2.98926L75.6793 6.32734L63.1611 2.98926Z" fill="white"/>
<path d="M111.796 3.01416V9.21701L121.24 11.733V25.3594H127.413V11.6583L136.857 9.14227V3.01416L124.339 6.32733L111.796 3.01416Z" fill="white"/>
<path d="M201.828 2.91455V19.1316L191.119 2.91455H183.583H181.204V2.96437V25.3345V25.3843H187.376V8.56936L198.605 25.3345H205.942H208V2.91455H201.828Z" fill="white"/>
<path d="M74.8364 37.2422H72.8037V35.897H78.7282V37.2422H76.6955V41.8756H74.8116V37.2422H74.8364Z" fill="white"/>
<path d="M85.1483 40.3062H84.132V41.9005H82.248V35.9219H85.2722C87.0818 35.9219 88.2221 36.7689 88.2221 38.139C88.2221 39.0108 87.7511 39.6585 86.9331 40.0322L88.3708 41.9005H86.3629L85.1483 40.3062ZM85.1731 37.2422H84.132V38.9859H85.1731C85.9415 38.9859 86.3381 38.6621 86.3381 38.114C86.3381 37.566 85.9415 37.2422 85.1731 37.2422Z" fill="white"/>
<path d="M96.5263 40.7297H93.7252L93.2046 41.9005H91.2959L94.2209 35.9219H96.0553L98.9803 41.9005H97.022L96.5263 40.7297ZM95.9809 39.4842L95.1381 37.566L94.2953 39.4842H95.9809Z" fill="white"/>
<path d="M102.352 35.897H105.475C107.656 35.897 109.168 37.0429 109.168 38.8863C109.168 40.7297 107.656 41.8756 105.475 41.8756H102.352V35.897ZM105.401 40.5304C106.516 40.5304 107.284 39.9326 107.284 38.8863C107.284 37.84 106.516 37.2422 105.401 37.2422H104.211V40.5304H105.401Z" fill="white"/>
<path d="M113.011 35.897H114.895V41.8756H113.011V35.897Z" fill="white"/>
<path d="M125.33 35.897V41.8756H123.794L120.869 38.687V41.8756H119.034V35.897H120.571L123.496 39.0856V35.897H125.33Z" fill="white"/>
<path d="M133.932 38.7618H135.593V41.2529C134.825 41.7511 133.784 42.0251 132.817 42.0251C130.71 42.0251 129.173 40.7297 129.173 38.9112C129.173 37.0927 130.71 35.7974 132.866 35.7974C134.106 35.7974 135.097 36.171 135.767 36.8935L134.577 37.865C134.131 37.4166 133.61 37.1924 132.965 37.1924C131.825 37.1924 131.082 37.865 131.082 38.9112C131.082 39.9077 131.85 40.6301 132.941 40.6301C133.288 40.6301 133.61 40.5803 133.957 40.4308V38.7618H133.932Z" fill="white"/>
</svg>
