<svg width="48" height="48" viewBox="0 0 48 48" fill="none" xmlns="http://www.w3.org/2000/svg">
<path d="M26.8627 36.0512L18.7772 28.1872L14.7092 24.2301C13.3499 22.911 12.0006 21.5819 10.6413 20.2628C10.601 20.2226 10.601 20.1521 10.6413 20.1118C10.6514 20.1017 10.6715 20.0917 10.6916 20.0816L21.7778 17.0911L32.874 14.1307C32.9344 14.1106 32.9948 14.1509 33.0049 14.2113C33.0149 14.2314 33.0049 14.2516 33.0049 14.2717C32.5014 16.0942 31.9879 17.9268 31.4743 19.7392L29.9338 25.1967L26.8627 36.0512ZM26.8627 36.0512L29.8331 25.096L31.3132 19.6486C31.8066 17.8362 32.3 16.0237 32.8035 14.2113L32.9344 14.3522L21.8482 17.3428L10.7521 20.283L10.8024 20.1017C12.1416 21.4208 13.4808 22.7398 14.8099 24.069L18.8174 28.0463L26.8627 36.0512Z" stroke="white"/>
<path d="M1.64917 17.6449L7.49934 39.4949L29.3594 45.3552L45.3593 29.3553L39.4991 7.49519L17.649 1.64502L1.64917 17.6449Z" stroke="white" stroke-miterlimit="10" stroke-linecap="round" stroke-linejoin="round"/>
<path d="M26.8627 36.0511L10.7319 20.1821L7.49976 39.4947L26.8627 36.0511Z" stroke="white" stroke-miterlimit="10" stroke-linecap="round" stroke-linejoin="round"/>
<mask id="path-4-inside-1_168_1614" fill="white">
<path d="M1.64917 17.645L6.17021 18.8432L8.46598 19.4575C9.23123 19.6588 9.99649 19.8703 10.7617 20.0818C10.8121 20.1019 10.8524 20.1522 10.8423 20.2026L9.2413 29.869L7.6101 39.5253C7.60003 39.5857 7.53962 39.626 7.4792 39.6159C7.43893 39.6058 7.39865 39.5756 7.38858 39.5353L5.93862 34.0376L4.49874 28.5499L1.64917 17.645ZM1.64917 17.645L4.6397 28.5902L6.12994 34.0376L7.60003 39.4749L7.38858 39.485L8.98957 29.8186L10.6208 20.1623L10.7013 20.2831C9.95621 20.0717 9.20102 19.8602 8.45591 19.6387L6.21049 18.9741L1.64917 17.645Z"/>
</mask>
<path d="M1.64917 17.645L1.90536 16.6784L0.248235 16.2392L0.681657 17.8978L1.64917 17.645ZM6.17021 18.8432L6.42867 17.8772L6.4264 17.8766L6.17021 18.8432ZM8.46598 19.4575L8.20752 20.4235L8.21148 20.4245L8.46598 19.4575ZM10.7617 20.0818L11.1331 19.1533L11.0816 19.1327L11.0281 19.1179L10.7617 20.0818ZM10.8423 20.2026L9.86171 20.0065L9.85845 20.0228L9.85573 20.0392L10.8423 20.2026ZM9.2413 29.869L10.2273 30.0355L10.2279 30.0324L9.2413 29.869ZM7.6101 39.5253L6.62407 39.3587L6.62371 39.3609L7.6101 39.5253ZM7.4792 39.6159L7.23667 40.586L7.27541 40.5957L7.3148 40.6023L7.4792 39.6159ZM7.38858 39.5353L8.3588 39.2928L8.35552 39.2803L7.38858 39.5353ZM5.93862 34.0376L4.97136 34.2914L4.97169 34.2926L5.93862 34.0376ZM4.49874 28.5499L3.53122 28.8027L3.53148 28.8037L4.49874 28.5499ZM4.6397 28.5902L3.67506 28.8537L3.67515 28.854L4.6397 28.5902ZM6.12994 34.0376L7.09528 33.7766L7.09449 33.7737L6.12994 34.0376ZM7.60003 39.4749L7.6476 40.4738L8.89 40.4146L8.56537 39.2139L7.60003 39.4749ZM7.38858 39.485L6.40202 39.3216L6.19977 40.5427L7.43615 40.4839L7.38858 39.485ZM8.98957 29.8186L8.00354 29.652L8.00301 29.6552L8.98957 29.8186ZM10.6208 20.1623L11.4528 19.6076L10.0546 17.5103L9.63474 19.9957L10.6208 20.1623ZM10.7013 20.2831L10.4283 21.2451L13.0383 21.9858L11.5334 19.7284L10.7013 20.2831ZM8.45591 19.6387L8.74088 18.6802L8.7397 18.6798L8.45591 19.6387ZM6.21049 18.9741L6.49429 18.0153L6.49025 18.0141L6.21049 18.9741ZM1.39298 18.6116L5.91402 19.8099L6.4264 17.8766L1.90536 16.6784L1.39298 18.6116ZM5.91176 19.8093L8.20752 20.4235L8.72443 18.4914L6.42867 17.8772L5.91176 19.8093ZM8.21148 20.4245C8.96981 20.6241 9.72915 20.8339 10.4954 21.0456L11.0281 19.1179C10.2638 18.9067 9.49265 18.6936 8.72047 18.4904L8.21148 20.4245ZM10.3904 21.0102C10.2443 20.9518 10.109 20.851 10.0077 20.7075C9.9046 20.5615 9.80066 20.3117 9.86171 20.0065L11.8229 20.3987C11.894 20.0431 11.775 19.743 11.6416 19.5542C11.5102 19.3679 11.3295 19.2318 11.1331 19.1533L10.3904 21.0102ZM9.85573 20.0392L8.25474 29.7056L10.2279 30.0324L11.8289 20.366L9.85573 20.0392ZM8.25527 29.7024L6.62407 39.3587L8.59613 39.6918L10.2273 30.0355L8.25527 29.7024ZM6.62371 39.3609C6.71063 38.8393 7.1972 38.5551 7.6436 38.6295L7.3148 40.6023C7.88203 40.6968 8.48943 40.332 8.59649 39.6897L6.62371 39.3609ZM7.72174 38.6457C7.84552 38.6767 7.96442 38.7355 8.0685 38.8235C8.17215 38.9112 8.30156 39.0641 8.35872 39.2928L6.41844 39.7779C6.54723 40.293 6.97208 40.5199 7.23667 40.586L7.72174 38.6457ZM8.35552 39.2803L6.90556 33.7826L4.97169 34.2926L6.42164 39.7903L8.35552 39.2803ZM6.90588 33.7838L5.46599 28.2961L3.53148 28.8037L4.97137 34.2914L6.90588 33.7838ZM5.46625 28.2971L2.61668 17.3922L0.681657 17.8978L3.53122 28.8027L5.46625 28.2971ZM0.684529 17.9086L3.67506 28.8537L5.60435 28.3266L2.61381 17.3815L0.684529 17.9086ZM3.67515 28.854L5.16538 34.3015L7.09449 33.7737L5.60426 28.3263L3.67515 28.854ZM5.1646 34.2986L6.63469 39.7359L8.56537 39.2139L7.09528 33.7766L5.1646 34.2986ZM7.55246 38.4761L7.34101 38.4861L7.43615 40.4839L7.6476 40.4738L7.55246 38.4761ZM8.37514 39.6484L9.97613 29.982L8.00301 29.6552L6.40202 39.3216L8.37514 39.6484ZM9.9756 29.9852L11.6068 20.3289L9.63474 19.9957L8.00354 29.652L9.9756 29.9852ZM9.78872 20.717L9.86927 20.8378L11.5334 19.7284L11.4528 19.6076L9.78872 20.717ZM10.9743 19.3211C10.2245 19.1083 9.47822 18.8994 8.74088 18.6802L8.17094 20.5972C8.92383 20.8211 9.68794 21.035 10.4283 21.2451L10.9743 19.3211ZM8.7397 18.6798L6.49429 18.0153L5.92669 19.933L8.17211 20.5976L8.7397 18.6798ZM6.49025 18.0141L1.92893 16.6849L1.36941 18.6051L5.93073 19.9342L6.49025 18.0141Z" fill="white" mask="url(#path-4-inside-1_168_1614)"/>
<mask id="path-6-inside-2_168_1614" fill="white">
<path d="M39.4988 7.49512L42.4793 18.3698L43.9796 23.8373C44.4831 25.6598 44.9765 27.4924 45.4698 29.3149C45.49 29.3754 45.4497 29.4358 45.3893 29.4458C45.349 29.4559 45.2987 29.4458 45.2785 29.4056L39.0357 21.8537L32.823 14.2817C32.7827 14.2414 32.7928 14.171 32.8331 14.1307C33.3869 13.5668 33.9507 13.0029 34.5146 12.4391L36.1962 10.7676L39.4988 7.49512ZM39.4988 7.49512L36.2163 10.9388L34.5952 12.6304C34.0615 13.1943 33.5178 13.7581 32.974 14.3119L32.9841 14.1609L39.227 21.7127L45.4396 29.2847L45.2483 29.3854C44.765 27.573 44.2817 25.7605 43.8084 23.938L42.3786 18.4805L39.4988 7.49512Z"/>
</mask>
<path d="M39.4988 7.49512L40.4633 7.23079L40.0109 5.58004L38.795 6.78477L39.4988 7.49512ZM42.4793 18.3698L41.5149 18.6341L41.515 18.6344L42.4793 18.3698ZM43.9796 23.8373L43.0153 24.102L43.0157 24.1036L43.9796 23.8373ZM45.4698 29.3149L44.5046 29.5763L44.5121 29.604L44.5212 29.6312L45.4698 29.3149ZM45.3893 29.4458L45.2249 28.4594L45.1855 28.466L45.1468 28.4757L45.3893 29.4458ZM45.2785 29.4056L46.173 28.9584L46.1219 28.8563L46.0493 28.7684L45.2785 29.4056ZM39.0357 21.8537L38.2626 22.488L38.2649 22.4909L39.0357 21.8537ZM32.823 14.2817L33.5961 13.6474L33.5649 13.6094L33.5301 13.5746L32.823 14.2817ZM32.8331 14.1307L33.5402 14.8378L33.5465 14.8314L32.8331 14.1307ZM34.5146 12.4391L33.8096 11.7298L33.8075 11.732L34.5146 12.4391ZM36.1962 10.7676L35.4923 10.0572L35.4912 10.0584L36.1962 10.7676ZM36.2163 10.9388L36.9383 11.6307L36.9401 11.6287L36.2163 10.9388ZM34.5952 12.6304L33.8732 11.9385L33.8689 11.943L34.5952 12.6304ZM32.974 14.3119L31.9763 14.2454L31.7967 16.9384L33.6876 15.0125L32.974 14.3119ZM32.9841 14.1609L33.7549 13.5237L32.1535 11.5866L31.9863 14.0944L32.9841 14.1609ZM39.227 21.7127L40.0001 21.0784L39.9977 21.0756L39.227 21.7127ZM45.4396 29.2847L45.9054 30.1697L46.9906 29.5985L46.2127 28.6504L45.4396 29.2847ZM45.2483 29.3854L44.2821 29.6431L44.605 30.8541L45.7141 30.2703L45.2483 29.3854ZM43.8084 23.938L44.7763 23.6867L44.7758 23.6846L43.8084 23.938ZM42.3786 18.4805L43.346 18.2271L43.3459 18.227L42.3786 18.4805ZM38.5344 7.75944L41.5149 18.6341L43.4437 18.1055L40.4633 7.23079L38.5344 7.75944ZM41.515 18.6344L43.0153 24.102L44.944 23.5727L43.4437 18.1052L41.515 18.6344ZM43.0157 24.1036C43.5183 25.9229 44.0107 27.7519 44.5046 29.5763L46.4351 29.0536C45.9422 27.233 45.4479 25.3968 44.9435 23.5711L43.0157 24.1036ZM44.5212 29.6312C44.3332 29.0674 44.7228 28.5431 45.2249 28.4594L45.5537 30.4322C46.1766 30.3284 46.6467 29.6833 46.4185 28.9987L44.5212 29.6312ZM45.1468 28.4757C45.2853 28.4411 45.451 28.4358 45.6246 28.4901C45.81 28.548 46.0384 28.6891 46.173 28.9584L44.3841 29.8528C44.7038 30.4921 45.3658 30.4825 45.6318 30.416L45.1468 28.4757ZM46.0493 28.7684L39.8064 21.2166L38.2649 22.4909L44.5078 30.0427L46.0493 28.7684ZM39.8088 21.2194L33.5961 13.6474L32.0499 14.916L38.2626 22.488L39.8088 21.2194ZM33.5301 13.5746C33.76 13.8045 33.8125 14.0905 33.7937 14.2967C33.7756 14.4962 33.6895 14.6884 33.5402 14.8378L32.126 13.4236C31.9363 13.6132 31.8251 13.8608 31.8019 14.1157C31.7782 14.3773 31.8457 14.7187 32.1159 14.9888L33.5301 13.5746ZM33.5465 14.8314C34.0966 14.2713 34.6573 13.7106 35.2217 13.1462L33.8075 11.732C33.2442 12.2953 32.6771 12.8623 32.1196 13.43L33.5465 14.8314ZM35.2196 13.1483L36.9011 11.4768L35.4912 10.0584L33.8096 11.7298L35.2196 13.1483ZM36.9 11.4779L40.2027 8.20547L38.795 6.78477L35.4923 10.0572L36.9 11.4779ZM38.775 6.80514L35.4925 10.2488L36.9401 11.6287L40.2227 8.18509L38.775 6.80514ZM35.4943 10.2469L33.8732 11.9385L35.3172 13.3223L36.9383 11.6307L35.4943 10.2469ZM33.8689 11.943C33.3395 12.5023 32.8 13.0618 32.2605 13.6113L33.6876 15.0125C34.2355 14.4544 34.7835 13.8862 35.3215 13.3178L33.8689 11.943ZM33.9718 14.3784L33.9819 14.2274L31.9863 14.0944L31.9763 14.2454L33.9718 14.3784ZM32.2134 14.798L38.4562 22.3499L39.9977 21.0756L33.7549 13.5237L32.2134 14.798ZM38.4539 22.347L44.6666 29.919L46.2127 28.6504L40.0001 21.0784L38.4539 22.347ZM44.9739 28.3998L44.7826 28.5005L45.7141 30.2703L45.9054 30.1697L44.9739 28.3998ZM46.2146 29.1278C45.7311 27.3148 45.2486 25.5055 44.7763 23.6867L42.8405 24.1894C43.3147 26.0156 43.7989 27.8312 44.2821 29.6431L46.2146 29.1278ZM44.7758 23.6846L43.346 18.2271L41.4113 18.734L42.8411 24.1915L44.7758 23.6846ZM43.3459 18.227L40.4662 7.24154L38.5315 7.74869L41.4113 18.7341L43.3459 18.227Z" fill="white" mask="url(#path-6-inside-2_168_1614)"/>
<path d="M39.499 7.49519L17.6489 1.64502L32.9037 14.2415L39.499 7.49519Z" stroke="white" stroke-miterlimit="10" stroke-linecap="round" stroke-linejoin="round"/>
<path d="M1.64917 17.6449L10.7315 20.1823L17.649 1.64502L1.64917 17.6449Z" stroke="white" stroke-miterlimit="10" stroke-linecap="round" stroke-linejoin="round"/>
<path d="M26.8625 36.0515L45.3596 29.3555L32.904 14.2417L26.8625 36.0515Z" stroke="white" stroke-miterlimit="10" stroke-linecap="round" stroke-linejoin="round"/>
<path d="M26.8625 36.0514L45.3596 29.3555L29.3597 45.3553L26.8625 36.0514Z" stroke="white" stroke-miterlimit="10" stroke-linecap="round" stroke-linejoin="round"/>
<path d="M17.649 1.64502L25.07 29.3352L7.49934 39.4949L1.64917 17.6449L17.649 1.64502Z" stroke="white" stroke-miterlimit="10" stroke-linecap="round" stroke-linejoin="round"/>
<path d="M17.6489 1.64502L25.0699 29.3352L45.3592 29.3553L39.499 7.49519L17.6489 1.64502Z" stroke="white" stroke-miterlimit="10" stroke-linecap="round" stroke-linejoin="round"/>
</svg>
