<svg width="48" height="48" viewBox="0 0 48 48" fill="none" xmlns="http://www.w3.org/2000/svg">
<g opacity="0.9">
<path d="M23.1554 37.0094C34.9057 37.3508 44.5586 33.2441 44.7157 27.837C44.8727 22.4299 35.4745 17.7699 23.7241 17.4286C11.9738 17.0873 2.32091 21.1939 2.16384 26.601C2.00677 32.0081 11.405 36.6681 23.1554 37.0094Z" stroke="white" stroke-width="0.5" stroke-miterlimit="10"/>
<path d="M23.3906 36.1745C34.6064 35.4618 43.4322 30.6906 43.1035 25.5178C42.7748 20.3449 33.4161 16.7293 22.2002 17.442C10.9844 18.1547 2.15855 22.9258 2.48725 28.0987C2.81595 33.2715 12.1747 36.8872 23.3906 36.1745Z" stroke="white" stroke-width="0.5" stroke-miterlimit="10"/>
<path d="M41.5074 23.2119C42.3261 28.1237 34.3152 33.5617 23.6437 35.3159C12.9723 37.0701 3.64572 34.5558 2.82709 29.6148C2.00845 24.703 10.0193 19.2941 20.6908 17.5107C31.3915 15.7565 40.718 18.3001 41.5074 23.2119Z" stroke="white" stroke-width="0.5" stroke-miterlimit="10"/>
<path d="M39.9294 20.9019C41.2158 25.5798 34.0528 31.6611 23.9076 34.4678C13.7625 37.2745 4.46514 35.7835 3.17872 31.1056C1.86306 26.4569 9.02609 20.3756 19.2005 17.5689C29.3457 14.7329 38.6138 16.2533 39.9294 20.9019Z" stroke="white" stroke-width="0.5" stroke-miterlimit="10"/>
<path d="M38.3205 18.6204C40.104 23.0644 33.7596 29.7888 24.1407 33.6481C14.5217 37.5074 5.28291 37.0688 3.49946 32.654C1.71602 28.21 8.06041 21.4856 17.6793 17.6263C27.2982 13.7378 36.5371 14.1764 38.3205 18.6204Z" stroke="white" stroke-width="0.5" stroke-miterlimit="10"/>
<path d="M36.7132 16.3119C38.9937 20.4928 33.4679 27.8605 24.3753 32.8015C15.2826 37.7425 6.07301 38.3273 3.82177 34.1464C1.57054 29.9655 7.0963 22.5686 16.1597 17.6568C25.2231 12.745 34.462 12.1311 36.7132 16.3119Z" stroke="white" stroke-width="0.5" stroke-miterlimit="10"/>
<path d="M35.1342 14.0023C37.8825 17.9493 33.1753 25.9894 24.6382 31.9537C16.0718 37.9473 6.92064 39.5845 4.17238 35.6668C1.42411 31.7198 6.13124 23.6797 14.6684 17.7154C23.2056 11.7218 32.3859 10.0553 35.1342 14.0023Z" stroke="white" stroke-width="0.5" stroke-miterlimit="10"/>
<path d="M33.5258 11.6922C36.7711 15.3761 32.8826 24.0887 24.8717 31.1347C16.8608 38.1516 7.73896 40.8706 4.49367 37.1868C1.24838 33.5029 5.13688 24.7903 13.1478 17.7443C21.1587 10.6982 30.2806 8.00839 33.5258 11.6922Z" stroke="white" stroke-width="0.5" stroke-miterlimit="10"/>
<path d="M31.9471 9.38319C35.6602 12.8331 32.6195 22.1889 25.1349 30.2875C17.6503 38.3569 8.55762 42.1285 4.8153 38.6785C1.07299 35.2286 4.14286 25.8728 11.6275 17.8034C19.1121 9.7048 28.2048 5.93325 31.9471 9.38319Z" stroke="white" stroke-width="0.5" stroke-miterlimit="10"/>
<path d="M30.339 7.07319C34.5491 10.2892 32.3271 20.2882 25.3687 29.4394C18.4104 38.5905 9.37618 43.4146 5.16608 40.1985C0.955976 36.9825 3.17798 26.9835 10.1363 17.8323C17.0655 8.68122 26.1289 3.88637 30.339 7.07319Z" stroke="white" stroke-width="0.5" stroke-miterlimit="10"/>
<path d="M28.7312 4.7632C33.4384 7.71612 32.035 18.3876 25.6029 28.5912C19.1708 38.7949 10.1658 44.6715 5.48794 41.7186C0.810049 38.7656 2.18418 28.0942 8.61628 17.8905C15.0484 7.68688 24.0533 1.81028 28.7312 4.7632Z" stroke="white" stroke-width="0.5" stroke-miterlimit="10"/>
</g>
</svg>
