<svg width="280" height="319" viewBox="0 0 280 319" fill="none" xmlns="http://www.w3.org/2000/svg">
<path fill-rule="evenodd" clip-rule="evenodd" d="M8.74228e-08 367L280 367L280 368L0 368L8.74228e-08 367ZM280 358L8.74228e-07 358L7.86805e-07 359L280 359L280 358ZM1.66103e-06 349L280 349L280 350L1.57361e-06 350L1.66103e-06 349ZM280 340L2.44784e-06 340L2.36041e-06 341L280 341L280 340ZM3.23464e-06 331L280 331L280 332L3.14722e-06 332L3.23464e-06 331ZM280 322L4.02145e-06 322L3.93402e-06 323L280 323L280 322ZM4.80825e-06 313L280 313L280 314L4.72083e-06 314L4.80825e-06 313ZM280 304L5.59506e-06 304L5.50763e-06 305L280 305L280 304ZM6.46929e-06 294L280 294L280 296L6.29444e-06 296L6.46929e-06 294ZM280 284L7.34351e-06 284L7.16867e-06 286L280 286L280 284ZM8.21774e-06 274L280 274L280 276L8.0429e-06 276L8.21774e-06 274ZM280 264L9.09197e-06 264L8.91712e-06 266L280 266L280 264ZM9.9662e-06 254L280 254L280 256L9.79135e-06 256L9.9662e-06 254ZM280 244L1.08404e-05 244L1.06656e-05 246L280 246L280 244ZM1.17147e-05 234L280 234L280 236L1.15398e-05 236L1.17147e-05 234ZM280 224L1.25889e-05 224L1.2414e-05 226L280 226L280 224ZM1.3638e-05 212L280 212L280 216L1.32883e-05 216L1.3638e-05 212ZM280 200L1.4687e-05 200L1.43373e-05 204L280 204L280 200ZM-1.47815e-05 188L280 188L280 192L-1.51312e-05 192L-1.47815e-05 188ZM280 176L-1.37324e-05 176L-1.40821e-05 180L280 180L280 176ZM-1.23336e-05 160L280 160L280 168L-1.3033e-05 168L-1.23336e-05 160ZM280 144L-1.09349e-05 144L-1.16343e-05 152L280 152L280 144ZM-9.53611e-06 128L280 128L280 136L-1.02355e-05 136L-9.53611e-06 128ZM280 108L-7.78766e-06 108L-8.83673e-06 120L280 120L280 108ZM-6.0392e-06 88L280 88L280 100L-7.08827e-06 100L-6.0392e-06 88ZM280 64L-3.94105e-06 64L-5.33982e-06 80L280 80L280 64ZM280 40L-1.84291e-06 40L-3.24167e-06 56L280 56L280 40ZM16 -2.30796e-05C7.16345 -2.38521e-05 1.02775e-06 7.16343 2.55239e-07 16L-1.14353e-06 32L280 32L280 16C280 7.16342 272.837 -3.11438e-05 264 -3.19163e-05L16 -2.30796e-05Z" fill="url(#paint0_linear_201_7167)"/>
<defs>
<linearGradient id="paint0_linear_201_7167" x1="140" y1="-3.05176e-05" x2="140" y2="343.5" gradientUnits="userSpaceOnUse">
<stop stop-color="#026A80"/>
<stop offset="1" stop-color="#121212"/>
</linearGradient>
</defs>
</svg>
