<svg width="764" height="544" viewBox="0 0 764 544" fill="none" xmlns="http://www.w3.org/2000/svg">
<path d="M764 0L600 377L453.5 448L169.5 290L0 0H764Z" fill="url(#paint0_linear_142_23785)" fill-opacity="0.6"/>
<g clip-path="url(#clip0_142_23785)">
<path opacity="0.1" d="M200.619 426.957L115.508 476.095C111.967 478.219 111.967 483.317 115.508 485.441L200.761 534.72C206.142 537.836 212.798 537.836 218.18 534.72L303.291 485.583C306.832 483.459 306.832 478.361 303.291 476.237L218.038 426.957C212.657 423.842 206.001 423.842 200.619 426.957Z" fill="url(#paint1_linear_142_23785)"/>
<path opacity="0.1" d="M112.959 356.295L80.5289 374.988C79.1128 375.837 79.1128 377.678 80.5289 378.528L112.959 397.22C114.942 398.353 117.491 398.353 119.615 397.22L151.904 378.528C153.32 377.678 153.32 375.837 151.904 374.988L119.473 356.295C117.491 355.163 114.942 355.163 112.959 356.295Z" fill="url(#paint2_linear_142_23785)"/>
<path opacity="0.1" d="M339.262 17.2883L252.309 67.5588C247.353 70.3909 244.379 75.6304 244.379 81.2947V112.873C244.379 117.121 249.052 119.812 252.734 117.688L339.687 67.5588C344.643 64.7267 347.617 59.4872 347.617 53.8229V22.1029C347.617 17.8547 342.944 15.1642 339.262 17.2883Z" fill="url(#paint3_linear_142_23785)"/>
<path opacity="0.1" d="M176.828 213.414L146.805 230.69C142.699 233.098 140.008 237.487 140.008 242.302V269.207C140.008 272.889 143.973 275.155 147.089 273.314L177.111 256.038C181.218 253.631 183.909 249.241 183.909 244.426V217.521C183.909 213.839 179.944 211.573 176.828 213.414Z" fill="url(#paint4_linear_142_23785)"/>
<path opacity="0.1" d="M462.327 22.2447L432.304 39.5208C428.197 41.9281 425.506 46.3179 425.506 51.1325V78.0379C425.506 81.7196 429.472 83.9854 432.587 82.1445L462.61 65.01C466.717 62.6027 469.407 58.2129 469.407 53.3982V26.4929C469.407 22.8111 465.442 20.5454 462.327 22.2447Z" fill="url(#paint5_linear_142_23785)"/>
<path opacity="0.1" d="M248.627 10.2081L218.605 27.4841C214.498 29.8915 211.807 34.2813 211.807 39.0959V66.0012C211.807 69.683 215.772 71.9487 218.888 70.1078L248.911 52.8318C253.018 50.4245 255.708 46.0346 255.708 41.22V14.3147C255.708 10.6329 251.743 8.36719 248.627 10.2081Z" fill="url(#paint6_linear_142_23785)"/>
<path opacity="0.1" d="M123.438 168.1L77.838 194.439C71.4653 198.121 67.5 204.918 67.5 212.281V253.206C67.5 258.728 73.5895 262.269 78.4045 259.436L124.147 233.097C130.519 229.416 134.485 222.619 134.485 215.255V174.331C134.343 168.808 128.253 165.268 123.438 168.1Z" fill="url(#paint7_linear_142_23785)"/>
<path d="M244.096 429.79L158.984 478.927C155.444 481.051 155.444 486.149 158.984 488.273L244.237 537.553C249.619 540.668 256.275 540.668 261.656 537.553L346.768 488.415C350.308 486.291 350.308 481.193 346.768 479.069L261.515 429.79C256.133 426.674 249.477 426.674 244.096 429.79Z" stroke="url(#paint8_linear_142_23785)" stroke-miterlimit="10" stroke-linejoin="round"/>
<g opacity="0.35">
<path d="M290.687 457.12L290.546 456.978C290.262 456.837 289.696 456.837 289.271 456.978L208.55 503.567C208.267 503.709 208.267 504.133 208.55 504.275L208.691 504.417C208.975 504.558 209.541 504.558 209.966 504.417L290.687 457.828C290.971 457.686 290.971 457.403 290.687 457.12Z" fill="white"/>
<path d="M297.344 461.085L297.202 460.943C296.919 460.802 296.352 460.802 295.927 460.943L215.206 507.532C214.923 507.673 214.923 508.098 215.206 508.24L215.348 508.381C215.631 508.523 216.197 508.523 216.622 508.381L297.344 461.793C297.627 461.51 297.627 461.226 297.344 461.085Z" fill="white"/>
<path d="M303.999 464.908L303.858 464.767C303.575 464.625 303.008 464.625 302.583 464.767L221.862 511.355C221.579 511.497 221.579 511.922 221.862 512.063L222.003 512.205C222.287 512.347 222.853 512.347 223.278 512.205L303.999 465.616C304.424 465.475 304.424 465.05 303.999 464.908Z" fill="white"/>
<path d="M258.966 498.611L258.824 498.469C258.541 498.327 257.974 498.327 257.549 498.469L228.518 515.179C228.235 515.32 228.235 515.745 228.518 515.887L228.66 516.028C228.943 516.17 229.509 516.17 229.934 516.028L258.966 499.319C259.39 499.035 259.39 498.752 258.966 498.611Z" fill="white"/>
<path d="M265.763 502.434L265.621 502.292C265.338 502.151 264.772 502.151 264.347 502.292L235.315 519.002C235.032 519.144 235.032 519.569 235.315 519.71L235.457 519.852C235.74 519.993 236.307 519.993 236.732 519.852L265.763 503.142C266.046 502.859 266.046 502.576 265.763 502.434Z" fill="white"/>
<path d="M272.419 506.257L272.278 506.116C271.994 505.974 271.428 505.974 271.003 506.116L241.972 522.825C241.688 522.967 241.688 523.392 241.972 523.533L242.113 523.675C242.397 523.817 242.963 523.817 243.388 523.675L272.419 506.965C272.702 506.824 272.702 506.541 272.419 506.257Z" fill="white"/>
<path d="M279.075 510.081L278.933 509.939C278.65 509.798 278.084 509.798 277.659 509.939L248.627 526.649C248.344 526.79 248.344 527.215 248.627 527.357L248.769 527.498C249.052 527.64 249.619 527.64 250.044 527.498L279.075 510.789C279.5 510.647 279.5 510.364 279.075 510.081Z" fill="white"/>
<path d="M201.752 500.452L201.894 500.593C202.177 500.735 202.744 500.735 203.169 500.593L283.89 454.004C284.173 453.863 284.173 453.438 283.89 453.296L283.748 453.155C283.465 453.013 282.899 453.013 282.474 453.155L201.752 499.744C201.469 499.885 201.469 500.31 201.752 500.452Z" fill="white"/>
</g>
<path d="M428.622 227.15L447.74 216.105C457.087 210.724 468.699 210.724 478.046 216.105L480.312 217.379C486.26 220.778 486.26 229.274 480.312 232.673L478.329 233.806L483.427 236.779L471.248 237.912L461.194 243.718C451.847 249.099 440.234 249.099 430.888 243.718L428.622 242.444C422.816 239.045 422.816 230.549 428.622 227.15Z" stroke="url(#paint9_linear_142_23785)" stroke-miterlimit="10" stroke-linejoin="round"/>
<path d="M466.858 226.442C465.301 227.292 463.035 227.433 461.618 226.725C460.344 226.017 460.486 224.601 462.043 223.751C463.601 222.902 465.867 222.76 467.283 223.468C468.558 224.318 468.274 225.592 466.858 226.442ZM458.645 228.283C457.37 227.575 454.963 227.575 453.405 228.566C451.847 229.416 451.705 230.832 452.98 231.54C454.254 232.248 456.662 232.248 458.22 231.257C459.777 230.407 459.919 229.133 458.645 228.283ZM450.006 233.239C448.731 232.531 446.324 232.531 444.766 233.522C443.208 234.372 443.067 235.788 444.341 236.496C445.616 237.204 448.023 237.204 449.581 236.213C451.139 235.363 451.28 233.947 450.006 233.239Z" fill="url(#paint10_linear_142_23785)"/>
<g opacity="0.3" filter="url(#filter0_f_142_23785)">
<path d="M479.604 500.31L601.677 429.789C610.599 424.692 610.599 411.947 601.677 406.707L327.933 248.816C316.179 242.018 301.734 242.018 289.98 248.816C259.249 266.517 199.062 301.21 167.906 319.336C158.984 324.434 158.984 337.178 167.906 342.418L441.651 500.451C453.263 507.107 467.85 507.107 479.604 500.31Z" fill="black"/>
</g>
<path opacity="0.55" d="M479.104 499.444L479.103 499.444C467.658 506.063 453.453 506.062 442.151 499.585C442.15 499.585 442.149 499.584 442.148 499.584L168.413 341.556C168.411 341.555 168.41 341.554 168.409 341.554C160.14 336.694 160.163 324.913 168.402 320.204L168.409 320.201C199.562 302.076 259.747 267.384 290.479 249.682L290.48 249.682C301.925 243.064 315.988 243.064 327.432 249.682L327.433 249.682L601.171 407.57C601.172 407.571 601.173 407.571 601.174 407.572C609.444 412.431 609.421 424.213 601.181 428.921L601.177 428.924L479.104 499.444Z" stroke="url(#paint11_linear_142_23785)" stroke-width="2"/>
<path d="M479.604 470.431L601.677 399.91C606.067 397.362 608.333 392.83 608.333 388.44C608.333 383.909 608.333 375.696 608.333 375.696L327.933 218.937C316.178 212.14 301.733 212.14 289.979 218.937C259.249 236.638 161.25 288.607 161.25 288.607C161.25 288.607 161.25 296.396 161.25 300.927C161.25 305.459 163.516 309.848 167.906 312.397L441.651 470.431C453.263 477.228 467.85 477.228 479.604 470.431Z" fill="url(#paint12_linear_142_23785)"/>
<path d="M479.604 457.544L601.677 387.024C610.599 381.926 610.599 369.182 601.677 363.942L327.933 206.05C316.179 199.253 301.734 199.253 289.98 206.05C259.249 223.751 199.062 258.445 167.906 276.571C158.984 281.669 158.984 294.413 167.906 299.653L441.651 457.686C453.263 464.342 467.85 464.342 479.604 457.544Z" fill="url(#paint13_linear_142_23785)"/>
<path d="M234.041 250.374C234.183 250.09 234.466 249.949 234.891 249.666L260.24 235.222C261.373 234.655 262.789 234.514 263.497 235.08C264.205 235.646 263.922 236.638 262.789 237.204L237.44 251.648C236.307 252.214 234.891 252.356 234.183 251.79C233.758 251.506 233.758 250.94 234.041 250.374ZM267.038 231.115C266.471 231.681 266.613 232.531 267.463 232.956C268.171 233.381 269.304 233.381 269.87 232.673C270.437 232.106 270.295 231.257 269.445 230.832C268.596 230.549 267.604 230.549 267.038 231.115Z" fill="#EF4210"/>
<path d="M598.137 370.173L324.392 212.281C319.719 209.591 314.338 208.175 308.956 208.175C303.575 208.175 298.193 209.591 293.52 212.281L278.509 220.919C276.668 222.052 276.668 224.743 278.509 225.734L283.324 228.566C285.023 229.557 285.023 231.965 283.324 232.956L229.651 263.968C226.96 265.525 223.703 265.525 221.012 263.968C220.021 263.401 219.03 262.835 217.897 262.127C214.498 260.144 210.391 260.144 206.992 262.127L171.447 282.801C168.756 284.359 168.473 287.05 168.473 288.041C168.473 289.032 168.756 291.723 171.447 293.28L445.191 451.314C449.864 454.004 455.246 455.42 460.627 455.42C466.009 455.42 471.39 454.004 476.063 451.314L598.137 380.794C600.828 379.236 601.111 376.545 601.111 375.554C601.111 374.421 600.828 371.872 598.137 370.173Z" fill="url(#paint14_linear_142_23785)"/>
<path d="M534.835 333.78L324.393 212.281C319.719 209.591 314.338 208.175 308.956 208.175C303.575 208.175 298.194 209.591 293.52 212.281L278.509 220.919C276.668 222.052 276.668 224.743 278.509 225.734L283.324 228.566C285.023 229.557 285.023 231.965 283.324 232.956L229.651 263.968C226.96 265.525 223.703 265.525 221.013 263.968C220.021 263.401 219.03 262.835 217.897 262.127C214.498 260.144 210.391 260.144 206.993 262.127L180.369 277.42L534.835 333.78Z" fill="url(#paint15_linear_142_23785)"/>
<path opacity="0.55" d="M222.57 322.735L596.013 381.926L597.995 380.794C600.686 379.236 600.969 376.545 600.969 375.554C600.969 374.563 600.686 371.872 597.995 370.315L581.851 360.969L177.536 296.821L222.57 322.735Z" fill="url(#paint16_linear_142_23785)"/>
<path d="M460.627 296.537L422.391 274.447C420.691 273.455 418.709 273.455 417.009 274.447L288.422 348.649C287.147 349.357 287.147 351.198 288.422 351.906L326.658 373.996C328.358 374.988 330.34 374.988 332.04 373.996L460.486 299.794C461.76 299.086 461.76 297.245 460.627 296.537Z" fill="url(#paint17_linear_142_23785)"/>
<path d="M368.435 313.247L366.594 312.114C364.895 311.123 362.912 311.123 361.213 312.114L301.309 347.374C300.034 348.082 300.034 349.923 301.309 350.631L303.15 351.764C304.849 352.755 306.832 352.755 308.531 351.764L368.435 316.504C369.568 315.654 369.568 313.955 368.435 313.247Z" fill="url(#paint18_linear_142_23785)"/>
<g opacity="0.35">
<path d="M438.393 292.289L438.252 292.147C437.969 292.006 437.402 292.006 436.977 292.147L318.303 360.685C318.02 360.827 318.02 361.252 318.303 361.393L318.444 361.535C318.728 361.676 319.294 361.676 319.719 361.535L438.393 292.997C438.818 292.714 438.818 292.431 438.393 292.289Z" fill="white"/>
<path d="M445.191 296.112L445.05 295.971C444.766 295.829 444.2 295.829 443.775 295.971L325.101 364.508C324.817 364.65 324.817 365.075 325.101 365.217L325.242 365.358C325.525 365.5 326.092 365.5 326.517 365.358L445.191 296.82C445.475 296.679 445.475 296.254 445.191 296.112Z" fill="white"/>
<path d="M311.647 357.428L311.789 357.57C312.072 357.711 312.638 357.711 313.063 357.57L431.738 289.032C432.021 288.89 432.021 288.466 431.738 288.324L431.596 288.182C431.313 288.041 430.746 288.041 430.322 288.182L311.647 356.72C311.364 357.003 311.364 357.287 311.647 357.428Z" fill="white"/>
</g>
<path d="M513.308 326.841L475.072 304.751C473.373 303.759 471.39 303.759 469.691 304.751L341.244 378.953C339.97 379.661 339.97 381.502 341.244 382.21L379.481 404.3C381.18 405.291 383.163 405.291 384.862 404.3L513.308 330.098C514.583 329.39 514.583 327.549 513.308 326.841Z" fill="url(#paint19_linear_142_23785)"/>
<path d="M421.116 343.551L419.275 342.418C417.576 341.427 415.593 341.427 413.894 342.418L353.99 377.678C352.716 378.386 352.716 380.227 353.99 380.935L355.831 382.068C357.531 383.059 359.513 383.059 361.213 382.068L421.116 346.808C422.391 346.1 422.391 344.259 421.116 343.551Z" fill="url(#paint20_linear_142_23785)"/>
<path opacity="0.35" d="M436.411 347.233L365.744 388.016C365.461 388.157 364.895 388.157 364.47 388.016L364.328 387.874C364.045 387.732 364.045 387.308 364.328 387.166L434.995 346.383C435.278 346.241 435.844 346.241 436.269 346.383L436.411 346.525C436.694 346.666 436.694 346.949 436.411 347.233ZM448.307 354.171L377.64 394.954C377.357 395.096 377.357 395.521 377.64 395.662L377.782 395.804C378.065 395.946 378.631 395.946 379.056 395.804L449.723 355.021C450.006 354.879 450.006 354.455 449.723 354.313L449.581 354.171C449.298 353.888 448.732 353.888 448.307 354.171ZM441.651 350.206L370.984 390.989C370.701 391.131 370.701 391.556 370.984 391.697L371.126 391.839C371.409 391.981 371.975 391.981 372.4 391.839L443.067 351.056C443.35 350.914 443.35 350.49 443.067 350.348L442.925 350.206C442.5 350.065 442.076 350.065 441.651 350.206Z" fill="white"/>
<path d="M254.009 30.3163L141.566 95.3139C135.193 98.9957 131.228 105.793 131.228 113.156V154.081C131.228 159.603 137.317 163.144 142.132 160.312L254.717 95.3139C261.09 91.6321 265.055 84.835 265.055 77.4714V36.6886C264.913 31.0243 258.824 27.6257 254.009 30.3163Z" stroke="url(#paint21_linear_142_23785)" stroke-miterlimit="10" stroke-linejoin="round"/>
<path d="M156.86 184.101L111.259 210.582C104.887 214.264 100.921 221.061 100.921 228.424V269.349C100.921 274.872 107.011 278.412 111.826 275.58L157.568 249.241C163.941 245.559 167.906 238.762 167.906 231.398V190.474C167.764 184.809 161.675 181.411 156.86 184.101Z" stroke="url(#paint22_linear_142_23785)" stroke-miterlimit="10" stroke-linejoin="round"/>
<path d="M193.539 82.0027L179.944 89.7911C173.288 93.6145 169.181 100.695 169.181 108.483V110.324C169.181 115.139 174.42 118.254 178.669 115.705L180.085 114.856V119.104L185.042 112.023L192.264 107.917C198.92 104.093 203.027 97.0131 203.027 89.2247V87.3838C202.885 82.7108 197.646 79.5954 193.539 82.0027Z" stroke="url(#paint23_linear_142_23785)" stroke-miterlimit="10" stroke-linejoin="round"/>
<path d="M177.536 104.518C177.536 103.385 178.386 101.969 179.519 101.403C180.652 100.836 181.501 101.12 181.501 102.253C181.501 103.385 180.652 104.801 179.519 105.368C178.386 105.934 177.536 105.651 177.536 104.518ZM185.608 101.828C186.741 101.261 187.591 99.8452 187.591 98.7123C187.591 97.5795 186.741 97.2963 185.608 97.8627C184.475 98.4291 183.626 99.8452 183.626 100.978C183.626 101.969 184.475 102.394 185.608 101.828ZM191.698 98.1459C192.831 97.5795 193.68 96.1634 193.68 95.0306C193.68 93.8977 192.831 93.6145 191.698 94.1809C190.565 94.7473 189.715 96.1634 189.715 97.2963C189.715 98.4291 190.565 98.8539 191.698 98.1459Z" fill="url(#paint24_linear_142_23785)"/>
<path d="M362.345 48.5835L205.434 139.212C197.929 143.602 193.255 151.532 193.255 160.311V248.249L199.203 236.213L366.452 139.637C373.958 135.247 378.631 127.317 378.631 118.537V57.9296C378.631 49.5748 369.568 44.4769 362.345 48.5835Z" fill="url(#paint25_linear_142_23785)"/>
<path opacity="0.75" d="M204.726 154.93V167.958C204.726 169.516 206.425 170.507 207.842 169.799L218.321 163.71C219.596 163.002 220.445 161.586 220.445 160.028V147C220.445 145.443 218.746 144.451 217.33 145.16L206.85 151.249C205.576 151.957 204.726 153.373 204.726 154.93Z" fill="url(#paint26_linear_142_23785)"/>
<path opacity="0.75" d="M213.931 154.93C214.498 154.222 215.064 153.231 215.064 152.523C215.064 151.39 214.073 150.965 212.94 151.673C211.807 152.381 210.816 153.939 210.816 155.072C210.816 155.922 211.24 156.346 211.949 156.346C210.391 157.762 209.116 159.887 209.116 161.586V165.409L216.763 161.019V157.196C216.763 155.213 215.631 154.364 213.931 154.93Z" fill="#5FC6FF"/>
<path opacity="0.75" d="M324.25 83.5604L229.651 138.221C228.518 138.929 227.81 140.062 227.81 141.478V155.497C227.81 156.771 229.226 157.621 230.359 156.913L324.958 102.253C326.091 101.545 326.799 100.412 326.799 98.9956V84.9765C326.799 83.702 325.383 82.994 324.25 83.5604Z" fill="url(#paint27_linear_142_23785)"/>
<path d="M234.466 147.142L312.78 101.969C313.488 101.545 314.054 100.837 314.054 100.412C314.054 99.9869 313.488 99.9869 312.78 100.27L234.466 145.443C233.758 145.868 233.191 146.576 233.191 147C233.191 147.425 233.758 147.567 234.466 147.142Z" fill="#80E4FF"/>
<path d="M340.253 85.1182C340.253 85.543 340.82 85.543 341.528 85.2598L366.028 71.0991C366.736 70.6742 367.302 69.9662 367.302 69.5414C367.302 69.1166 366.736 69.1166 366.028 69.3998L341.528 83.5605C340.82 83.9853 340.253 84.6933 340.253 85.1182Z" fill="#80E4FF"/>
<path opacity="0.35" d="M206.001 195.996L365.886 103.669C366.594 103.244 367.16 102.536 367.16 102.111C367.16 101.686 366.594 101.686 365.886 101.969L206.001 194.439C205.293 194.864 204.726 195.572 204.726 195.996C204.726 196.421 205.293 196.421 206.001 195.996Z" fill="#80E4FF"/>
<path opacity="0.35" d="M302.158 159.745L206.001 215.255C205.293 215.68 204.726 216.388 204.726 216.813C204.726 217.237 205.293 217.237 206.001 216.954L302.158 161.444C302.866 161.02 303.433 160.311 303.433 159.887C303.433 159.462 302.866 159.32 302.158 159.745Z" fill="#80E4FF"/>
<g opacity="0.35">
<path d="M319.86 139.92C319.86 140.345 320.427 140.345 321.135 140.062L365.886 114.148C366.594 113.723 367.16 113.015 367.16 112.59C367.16 112.165 366.594 112.165 365.886 112.448L321.135 138.362C320.427 138.787 319.86 139.495 319.86 139.92Z" fill="#80E4FF"/>
<path d="M315.187 141.761L206.001 204.918C205.293 205.343 204.726 206.051 204.726 206.475C204.726 206.9 205.293 206.9 206.001 206.617L315.187 143.602C315.895 143.177 316.461 142.469 316.461 142.044C316.461 141.478 315.895 141.478 315.187 141.761Z" fill="#80E4FF"/>
</g>
<path opacity="0.35" d="M204.726 186.226C204.726 186.65 205.293 186.65 206.001 186.367L265.196 151.957C265.904 151.532 266.471 150.824 266.471 150.399C266.471 149.974 265.904 149.974 265.196 150.257L206.001 184.668C205.293 185.093 204.726 185.801 204.726 186.226Z" fill="#80E4FF"/>
<path d="M207.417 224.459V297.387" stroke="white" stroke-width="0.5" stroke-miterlimit="10" stroke-linejoin="round"/>
<path opacity="0.27" d="M211.807 298.662C210.249 300.219 206.992 300.927 204.443 300.361C202.036 299.653 201.186 297.954 202.744 296.254C204.301 294.697 207.559 293.989 210.108 294.555C212.657 295.263 213.365 297.104 211.807 298.662Z" fill="white"/>
<path opacity="0.21" d="M214.639 299.37C212.09 301.919 206.85 303.051 202.744 302.06C198.778 300.927 197.504 298.095 200.053 295.546C202.602 292.997 207.842 291.865 211.949 292.856C216.056 293.847 217.188 296.821 214.639 299.37Z" fill="white"/>
<path d="M209.541 297.954C208.833 298.662 207.133 299.086 205.859 298.803C204.584 298.52 204.301 297.529 205.009 296.821C205.717 296.113 207.417 295.688 208.691 295.971C209.966 296.396 210.391 297.245 209.541 297.954Z" fill="white"/>
<path d="M205.434 225.592C205.434 224.46 206.284 223.043 207.417 222.477C208.55 221.911 209.399 222.194 209.399 223.327C209.399 224.46 208.55 225.876 207.417 226.442C206.284 227.15 205.434 226.725 205.434 225.592Z" fill="white"/>
<path d="M554.236 49.7163L397.749 139.92C390.102 144.31 385.287 152.523 385.287 161.444V221.344C385.287 229.84 394.492 235.08 401.715 230.832L565.99 136.238L570.663 141.336V59.204C570.663 50.7076 561.458 45.4681 554.236 49.7163Z" fill="url(#paint28_linear_142_23785)"/>
<path opacity="0.75" d="M396.758 155.922V168.949C396.758 170.507 398.457 171.498 399.873 170.79L410.353 164.701C411.628 163.993 412.477 162.577 412.477 161.019V147.992C412.477 146.434 410.778 145.443 409.362 146.151L398.882 152.24C397.608 152.948 396.758 154.364 396.758 155.922Z" fill="url(#paint29_linear_142_23785)"/>
<path opacity="0.75" d="M405.963 155.78C406.529 155.072 407.096 154.081 407.096 153.373C407.096 152.24 406.105 151.815 404.972 152.523C403.839 153.231 402.847 154.789 402.847 155.921C402.847 156.771 403.272 157.196 403.98 157.196C402.422 158.612 401.148 160.736 401.148 162.435V166.259L408.795 161.869V158.046C408.795 156.205 407.662 155.355 405.963 155.78Z" fill="#5FC6FF"/>
<path opacity="0.75" d="M516.14 84.5516L421.541 139.212C420.408 139.92 419.7 141.053 419.7 142.469V156.488C419.7 157.762 421.116 158.612 422.249 157.904L516.849 103.244C517.981 102.536 518.69 101.403 518.69 99.9867V85.9677C518.831 84.6932 517.415 83.8435 516.14 84.5516Z" fill="url(#paint30_linear_142_23785)"/>
<path d="M532.285 86.1094C532.285 86.5342 532.852 86.5342 533.56 86.251L558.059 72.0903C558.767 71.6655 559.334 70.9574 559.334 70.5326C559.334 70.1078 558.767 70.1078 558.059 70.391L533.418 84.5517C532.71 84.9765 532.285 85.5429 532.285 86.1094Z" fill="#80E4FF"/>
<path d="M425.223 148.133C425.223 148.558 425.79 148.558 426.498 148.275L485.693 113.864C486.401 113.439 486.968 112.731 486.968 112.307C486.968 111.882 486.401 111.882 485.693 112.165L426.498 146.575C425.79 147 425.223 147.708 425.223 148.133Z" fill="#80E4FF"/>
<g opacity="0.35">
<path d="M398.032 197.129L557.917 104.801C558.625 104.377 559.192 103.669 559.192 103.244C559.192 102.819 558.625 102.819 557.917 103.102L398.032 195.43C397.324 195.855 396.758 196.563 396.758 196.988C396.899 197.412 397.324 197.554 398.032 197.129Z" fill="#80E4FF"/>
<path d="M396.899 187.217C396.899 187.642 397.466 187.642 398.174 187.358L457.37 152.948C458.078 152.523 458.644 151.815 458.644 151.39C458.644 150.965 458.078 150.965 457.37 151.249L398.174 185.659C397.324 186.084 396.899 186.792 396.899 187.217Z" fill="#80E4FF"/>
<path d="M504.67 154.789L398.032 216.388C397.324 216.813 396.758 217.521 396.758 217.945C396.758 218.37 397.324 218.37 398.032 218.087L504.67 156.488C505.378 156.063 505.944 155.355 505.944 154.93C505.944 154.364 505.378 154.364 504.67 154.789Z" fill="#80E4FF"/>
<path d="M447.456 177.446L398.032 205.909C397.324 206.334 396.758 207.042 396.758 207.467C396.758 207.891 397.324 207.891 398.032 207.608L447.456 179.145C448.165 178.72 448.731 178.012 448.731 177.587C448.731 177.021 448.165 177.021 447.456 177.446Z" fill="#80E4FF"/>
<path d="M453.971 174.331C453.971 174.755 454.537 174.755 455.245 174.472L557.917 115.139C558.625 114.714 559.192 114.006 559.192 113.581C559.192 113.156 558.625 113.156 557.917 113.44L455.245 172.773C454.537 173.339 453.971 173.906 453.971 174.331Z" fill="#80E4FF"/>
</g>
<path d="M397.891 225.167V298.095" stroke="white" stroke-width="0.5" stroke-miterlimit="10" stroke-linejoin="round"/>
<path opacity="0.27" d="M402.281 299.369C400.723 300.927 397.466 301.635 394.917 301.069C392.51 300.361 391.66 298.661 393.218 296.962C394.776 295.263 398.033 294.696 400.582 295.263C403.131 295.829 403.839 297.67 402.281 299.369Z" fill="white"/>
<path opacity="0.21" d="M405.113 300.077C402.564 302.626 397.324 303.759 393.218 302.768C389.111 301.777 387.978 298.803 390.527 296.254C393.076 293.705 398.316 292.572 402.423 293.564C406.53 294.555 407.662 297.529 405.113 300.077Z" fill="white"/>
<path d="M400.015 298.661C399.307 299.369 397.608 299.794 396.333 299.511C395.058 299.228 394.775 298.236 395.483 297.528C396.191 296.82 397.891 296.396 399.165 296.679C400.44 296.962 400.865 297.953 400.015 298.661Z" fill="white"/>
<path d="M395.908 226.3C395.908 225.167 396.758 223.751 397.891 223.185C399.024 222.618 399.873 222.902 399.873 224.034C399.873 225.167 399.024 226.583 397.891 227.15C396.758 227.858 395.908 227.433 395.908 226.3Z" fill="white"/>
<path d="M638.214 150.824L481.303 241.452C473.797 245.842 469.124 253.772 469.124 262.552V350.49L475.072 338.453L642.462 241.736C649.968 237.346 654.642 229.416 654.642 220.636V160.17C654.5 151.957 645.436 146.717 638.214 150.824Z" fill="url(#paint31_linear_142_23785)"/>
<path opacity="0.75" d="M480.595 257.171V270.198C480.595 271.756 482.294 272.747 483.71 272.039L494.19 265.95C495.464 265.242 496.314 263.826 496.314 262.268V249.241C496.314 247.683 494.615 246.692 493.199 247.4L482.719 253.489C481.444 254.197 480.595 255.613 480.595 257.171Z" fill="url(#paint32_linear_142_23785)"/>
<path opacity="0.75" d="M489.941 257.171C490.508 256.463 491.074 255.471 491.074 254.763C491.074 253.631 490.083 253.206 488.95 253.914C487.817 254.622 486.826 256.179 486.826 257.312C486.826 258.162 487.251 258.587 487.959 258.587C486.401 260.003 485.126 262.127 485.126 263.826V267.65L492.774 263.26V259.436C492.632 257.454 491.499 256.604 489.941 257.171Z" fill="#5FC6FF"/>
<path opacity="0.75" d="M600.119 185.801L505.519 240.461C504.386 241.169 503.678 242.302 503.678 243.718V257.737C503.678 259.012 505.094 259.861 506.227 259.153L600.827 204.493C601.96 203.785 602.668 202.652 602.668 201.236V187.217C602.668 186.084 601.252 185.234 600.119 185.801Z" fill="url(#paint33_linear_142_23785)"/>
<path d="M510.334 249.382L588.648 204.21C589.356 203.785 589.923 203.077 589.923 202.652C589.923 202.227 589.356 202.227 588.648 202.51L510.334 247.683C509.626 248.108 509.06 248.816 509.06 249.241C509.06 249.666 509.626 249.807 510.334 249.382Z" fill="#80E4FF"/>
<path d="M616.122 187.358C616.122 187.783 616.689 187.783 617.397 187.5L641.896 173.339C642.604 172.914 643.171 172.206 643.171 171.782C643.171 171.357 642.604 171.357 641.896 171.64L617.397 185.801C616.689 186.226 616.122 186.934 616.122 187.358Z" fill="#80E4FF"/>
<path opacity="0.35" d="M481.869 298.237L641.754 205.909C642.462 205.484 643.029 204.776 643.029 204.351C643.029 203.927 642.462 203.927 641.754 204.21L481.869 296.538C481.161 296.962 480.595 297.67 480.595 298.095C480.595 298.662 481.161 298.662 481.869 298.237Z" fill="#80E4FF"/>
<path opacity="0.35" d="M578.027 261.986L481.869 317.495C481.161 317.92 480.595 318.628 480.595 319.053C480.595 319.478 481.161 319.478 481.869 319.195L578.027 263.685C578.735 263.26 579.301 262.552 579.301 262.127C579.301 261.702 578.735 261.561 578.027 261.986Z" fill="#80E4FF"/>
<g opacity="0.35">
<path d="M595.729 242.161C595.729 242.585 596.295 242.585 597.004 242.302L641.754 216.388C642.462 215.963 643.029 215.255 643.029 214.83C643.029 214.406 642.462 214.406 641.754 214.689L597.004 240.603C596.295 241.028 595.729 241.736 595.729 242.161Z" fill="#80E4FF"/>
<path d="M591.056 244.002L481.869 307.017C481.161 307.442 480.595 308.15 480.595 308.574C480.595 308.999 481.161 308.999 481.869 308.716L591.056 245.701C591.764 245.276 592.33 244.568 592.33 244.143C592.33 243.718 591.764 243.718 591.056 244.002Z" fill="#80E4FF"/>
</g>
<path opacity="0.35" d="M480.595 288.466C480.595 288.891 481.161 288.891 481.869 288.608L541.065 254.197C541.773 253.772 542.339 253.064 542.339 252.64C542.339 252.215 541.773 252.215 541.065 252.498L481.869 286.908C481.161 287.333 480.595 288.041 480.595 288.466Z" fill="#80E4FF"/>
<path d="M480.595 326.275V399.203" stroke="white" stroke-width="0.5" stroke-miterlimit="10" stroke-linejoin="round"/>
<path opacity="0.27" d="M485.127 400.477C483.569 402.035 480.312 402.743 477.763 402.176C475.355 401.468 474.506 399.769 476.063 398.07C477.621 396.512 480.878 395.804 483.427 396.371C485.977 397.079 486.685 398.919 485.127 400.477Z" fill="white"/>
<path opacity="0.21" d="M487.959 401.185C485.41 403.734 480.17 404.867 476.063 403.876C472.098 402.743 470.824 399.911 473.373 397.362C475.922 394.813 481.162 393.68 485.268 394.671C489.234 395.662 490.508 398.636 487.959 401.185Z" fill="white"/>
<path d="M482.861 399.769C482.153 400.477 480.453 400.902 479.179 400.619C477.904 400.335 477.621 399.344 478.329 398.636C479.037 397.928 480.737 397.503 482.011 397.786C483.286 398.211 483.71 399.061 482.861 399.769Z" fill="white"/>
<path d="M478.612 327.408C478.612 326.275 479.462 324.859 480.595 324.292C481.728 323.726 482.578 324.009 482.578 325.142C482.578 326.275 481.728 327.691 480.595 328.257C479.604 328.966 478.612 328.541 478.612 327.408Z" fill="white"/>
<path d="M451.422 506.824L484.702 487.565C500.988 478.219 521.097 478.219 537.383 487.565L541.349 489.831C551.545 495.778 551.545 510.506 541.349 516.453L537.808 518.436L546.73 523.675L525.629 525.516L508.069 535.712C491.783 545.058 471.673 545.058 455.387 535.712L451.422 533.446C441.226 527.64 441.226 512.771 451.422 506.824Z" stroke="url(#paint34_linear_142_23785)" stroke-miterlimit="10" stroke-linejoin="round"/>
<path d="M517.84 505.833C515.15 507.39 511.043 507.532 508.777 506.257C506.511 504.983 506.794 502.576 509.485 501.018C512.176 499.46 516.283 499.319 518.548 500.593C520.814 502.009 520.531 504.275 517.84 505.833ZM503.537 509.09C501.271 507.815 497.164 507.957 494.474 509.514C491.783 511.072 491.5 513.479 493.766 514.754C496.031 516.028 500.138 515.887 502.829 514.329C505.52 512.771 505.803 510.364 503.537 509.09ZM488.526 517.444C486.26 516.17 482.153 516.312 479.462 517.869C476.772 519.427 476.488 521.834 478.754 523.109C481.02 524.383 485.127 524.242 487.818 522.684C490.508 521.126 490.933 518.86 488.526 517.444Z" fill="url(#paint35_linear_142_23785)"/>
<path d="M328.924 459.102L271.569 492.238C269.162 493.654 269.162 497.053 271.569 498.469L329.066 531.605C332.748 533.729 337.138 533.729 340.82 531.605L398.174 498.469C400.582 497.053 400.582 493.654 398.174 492.238L340.678 459.102C336.996 457.12 332.606 457.12 328.924 459.102Z" stroke="url(#paint36_linear_142_23785)" stroke-miterlimit="10" stroke-linejoin="round"/>
</g>
<defs>
<filter id="filter0_f_142_23785" x="41.2148" y="123.718" width="687.154" height="501.708" filterUnits="userSpaceOnUse" color-interpolation-filters="sRGB">
<feFlood flood-opacity="0" result="BackgroundImageFix"/>
<feBlend mode="normal" in="SourceGraphic" in2="BackgroundImageFix" result="shape"/>
<feGaussianBlur stdDeviation="60" result="effect1_foregroundBlur_142_23785"/>
</filter>
<linearGradient id="paint0_linear_142_23785" x1="458" y1="464" x2="461" y2="58" gradientUnits="userSpaceOnUse">
<stop stop-color="#026A80"/>
<stop offset="0.2427" stop-color="#22B5D3"/>
<stop offset="0.7593" stop-color="#95E9FB" stop-opacity="0.5"/>
<stop offset="1" stop-color="#C2F4FF" stop-opacity="0"/>
</linearGradient>
<linearGradient id="paint1_linear_142_23785" x1="208.268" y1="424.65" x2="208.268" y2="536.804" gradientUnits="userSpaceOnUse">
<stop stop-color="#026A80"/>
<stop offset="0.2427" stop-color="#22B5D3"/>
<stop offset="0.7593" stop-color="#95E9FB" stop-opacity="0.5"/>
<stop offset="1" stop-color="#C2F4FF" stop-opacity="0"/>
</linearGradient>
<linearGradient id="paint2_linear_142_23785" x1="115.785" y1="355.457" x2="115.785" y2="397.974" gradientUnits="userSpaceOnUse">
<stop stop-color="#026A80"/>
<stop offset="0.2427" stop-color="#22B5D3"/>
<stop offset="0.7593" stop-color="#95E9FB" stop-opacity="0.5"/>
<stop offset="1" stop-color="#C2F4FF" stop-opacity="0"/>
</linearGradient>
<linearGradient id="paint3_linear_142_23785" x1="295.393" y1="16.5721" x2="295.393" y2="118.201" gradientUnits="userSpaceOnUse">
<stop stop-color="#026A80"/>
<stop offset="0.2427" stop-color="#22B5D3"/>
<stop offset="0.7593" stop-color="#95E9FB" stop-opacity="0.5"/>
<stop offset="1" stop-color="#C2F4FF" stop-opacity="0"/>
</linearGradient>
<linearGradient id="paint4_linear_142_23785" x1="161.701" y1="212.777" x2="161.701" y2="273.829" gradientUnits="userSpaceOnUse">
<stop stop-color="#026A80"/>
<stop offset="0.2427" stop-color="#22B5D3"/>
<stop offset="0.7593" stop-color="#95E9FB" stop-opacity="0.5"/>
<stop offset="1" stop-color="#C2F4FF" stop-opacity="0"/>
</linearGradient>
<linearGradient id="paint5_linear_142_23785" x1="447.2" y1="21.6861" x2="447.2" y2="82.6601" gradientUnits="userSpaceOnUse">
<stop stop-color="#026A80"/>
<stop offset="0.2427" stop-color="#22B5D3"/>
<stop offset="0.7593" stop-color="#95E9FB" stop-opacity="0.5"/>
<stop offset="1" stop-color="#C2F4FF" stop-opacity="0"/>
</linearGradient>
<linearGradient id="paint6_linear_142_23785" x1="233.5" y1="9.57066" x2="233.5" y2="70.6233" gradientUnits="userSpaceOnUse">
<stop stop-color="#026A80"/>
<stop offset="0.2427" stop-color="#22B5D3"/>
<stop offset="0.7593" stop-color="#95E9FB" stop-opacity="0.5"/>
<stop offset="1" stop-color="#C2F4FF" stop-opacity="0"/>
</linearGradient>
<linearGradient id="paint7_linear_142_23785" x1="100.6" y1="167.125" x2="100.6" y2="260.225" gradientUnits="userSpaceOnUse">
<stop stop-color="#026A80"/>
<stop offset="0.2427" stop-color="#22B5D3"/>
<stop offset="0.7593" stop-color="#95E9FB" stop-opacity="0.5"/>
<stop offset="1" stop-color="#C2F4FF" stop-opacity="0"/>
</linearGradient>
<linearGradient id="paint8_linear_142_23785" x1="278.789" y1="539.88" x2="278.789" y2="427.503" gradientUnits="userSpaceOnUse">
<stop stop-color="#EF4210"/>
<stop offset="0.2427" stop-color="#F46A42"/>
<stop offset="0.7593" stop-color="#FBAC95"/>
<stop offset="1" stop-color="#FFDACF"/>
</linearGradient>
<linearGradient id="paint9_linear_142_23785" x1="443.786" y1="251.951" x2="468.241" y2="209.593" gradientUnits="userSpaceOnUse">
<stop stop-color="#005BFF"/>
<stop offset="1" stop-color="#0093FF"/>
</linearGradient>
<linearGradient id="paint10_linear_142_23785" x1="461.423" y1="220.167" x2="450.133" y2="239.723" gradientUnits="userSpaceOnUse">
<stop stop-color="#005BFF"/>
<stop offset="1" stop-color="#0093FF"/>
</linearGradient>
<linearGradient id="paint11_linear_142_23785" x1="444.8" y1="505.404" x2="444.8" y2="243.835" gradientUnits="userSpaceOnUse">
<stop stop-color="#EF4210"/>
<stop offset="0.2427" stop-color="#F46A42"/>
<stop offset="0.7593" stop-color="#FBAC95"/>
<stop offset="1" stop-color="#FFDACF"/>
</linearGradient>
<linearGradient id="paint12_linear_142_23785" x1="444.79" y1="475.507" x2="444.79" y2="213.956" gradientUnits="userSpaceOnUse">
<stop stop-color="#A32804"/>
<stop offset="0.2427" stop-color="#95371D"/>
<stop offset="0.7593" stop-color="#A7634F"/>
<stop offset="1" stop-color="#BB6147"/>
</linearGradient>
<linearGradient id="paint13_linear_142_23785" x1="444.8" y1="462.638" x2="444.8" y2="201.07" gradientUnits="userSpaceOnUse">
<stop stop-color="#EF4210"/>
<stop offset="0.2427" stop-color="#F46A42"/>
<stop offset="0.7593" stop-color="#FBAC95"/>
<stop offset="1" stop-color="#FFDACF"/>
</linearGradient>
<linearGradient id="paint14_linear_142_23785" x1="384.772" y1="455.392" x2="384.772" y2="208.113" gradientUnits="userSpaceOnUse">
<stop stop-color="#4198FF"/>
<stop offset="1" stop-color="#05E3EB"/>
</linearGradient>
<linearGradient id="paint15_linear_142_23785" x1="356.679" y1="309.696" x2="377.918" y2="219.775" gradientUnits="userSpaceOnUse">
<stop stop-color="white" stop-opacity="0.3"/>
<stop offset="1" stop-color="white" stop-opacity="0.05"/>
</linearGradient>
<linearGradient id="paint16_linear_142_23785" x1="384.588" y1="356.618" x2="394.451" y2="314.863" gradientUnits="userSpaceOnUse">
<stop stop-color="white" stop-opacity="0.3"/>
<stop offset="1" stop-color="white" stop-opacity="0.05"/>
</linearGradient>
<linearGradient id="paint17_linear_142_23785" x1="341.044" y1="382.181" x2="408" y2="266.201" gradientUnits="userSpaceOnUse">
<stop stop-color="white" stop-opacity="0.5"/>
<stop offset="1" stop-color="white" stop-opacity="0.2"/>
</linearGradient>
<linearGradient id="paint18_linear_142_23785" x1="300.347" y1="331.931" x2="369.324" y2="331.931" gradientUnits="userSpaceOnUse">
<stop stop-color="white" stop-opacity="0.5"/>
<stop offset="1" stop-color="white" stop-opacity="0.2"/>
</linearGradient>
<linearGradient id="paint19_linear_142_23785" x1="393.772" y1="412.529" x2="460.728" y2="296.549" gradientUnits="userSpaceOnUse">
<stop stop-color="white" stop-opacity="0.5"/>
<stop offset="1" stop-color="white" stop-opacity="0.2"/>
</linearGradient>
<linearGradient id="paint20_linear_142_23785" x1="353.075" y1="362.279" x2="422.052" y2="362.279" gradientUnits="userSpaceOnUse">
<stop stop-color="white" stop-opacity="0.5"/>
<stop offset="1" stop-color="white" stop-opacity="0.2"/>
</linearGradient>
<linearGradient id="paint21_linear_142_23785" x1="153.746" y1="172.108" x2="242.351" y2="18.629" gradientUnits="userSpaceOnUse">
<stop stop-color="#005BFF"/>
<stop offset="1" stop-color="#0093FF"/>
</linearGradient>
<linearGradient id="paint22_linear_142_23785" x1="106.724" y1="277.675" x2="161.92" y2="182.067" gradientUnits="userSpaceOnUse">
<stop stop-color="#005BFF"/>
<stop offset="1" stop-color="#0093FF"/>
</linearGradient>
<linearGradient id="paint23_linear_142_23785" x1="193.015" y1="113.942" x2="180.572" y2="87.2567" gradientUnits="userSpaceOnUse">
<stop stop-color="#005BFF"/>
<stop offset="1" stop-color="#0093FF"/>
</linearGradient>
<linearGradient id="paint24_linear_142_23785" x1="177.557" y1="99.7764" x2="193.627" y2="99.7764" gradientUnits="userSpaceOnUse">
<stop stop-color="#005BFF"/>
<stop offset="1" stop-color="#0093FF"/>
</linearGradient>
<linearGradient id="paint25_linear_142_23785" x1="284.857" y1="47.1867" x2="284.857" y2="247.797" gradientUnits="userSpaceOnUse">
<stop stop-color="#026A80"/>
<stop offset="0.2427" stop-color="#22B5D3"/>
<stop offset="0.7593" stop-color="#95E9FB" stop-opacity="0.5"/>
<stop offset="1" stop-color="#C2F4FF" stop-opacity="0"/>
</linearGradient>
<linearGradient id="paint26_linear_142_23785" x1="216.476" y1="165.737" x2="208.77" y2="149.211" gradientUnits="userSpaceOnUse">
<stop stop-color="#005BFF"/>
<stop offset="1" stop-color="#0093FF"/>
</linearGradient>
<linearGradient id="paint27_linear_142_23785" x1="282.906" y1="132.491" x2="271.553" y2="108.144" gradientUnits="userSpaceOnUse">
<stop stop-color="#005BFF"/>
<stop offset="1" stop-color="#0093FF"/>
</linearGradient>
<linearGradient id="paint28_linear_142_23785" x1="476.888" y1="48.258" x2="476.888" y2="231.923" gradientUnits="userSpaceOnUse">
<stop stop-color="#026A80"/>
<stop offset="0.2427" stop-color="#22B5D3"/>
<stop offset="0.7593" stop-color="#95E9FB" stop-opacity="0.5"/>
<stop offset="1" stop-color="#C2F4FF" stop-opacity="0"/>
</linearGradient>
<linearGradient id="paint29_linear_142_23785" x1="408.48" y1="166.686" x2="400.774" y2="150.159" gradientUnits="userSpaceOnUse">
<stop stop-color="#005BFF"/>
<stop offset="1" stop-color="#0093FF"/>
</linearGradient>
<linearGradient id="paint30_linear_142_23785" x1="474.91" y1="133.439" x2="463.557" y2="109.092" gradientUnits="userSpaceOnUse">
<stop stop-color="#005BFF"/>
<stop offset="1" stop-color="#0093FF"/>
</linearGradient>
<linearGradient id="paint31_linear_142_23785" x1="560.795" y1="149.446" x2="560.795" y2="350.037" gradientUnits="userSpaceOnUse">
<stop stop-color="#026A80"/>
<stop offset="0.2427" stop-color="#22B5D3"/>
<stop offset="0.7593" stop-color="#95E9FB" stop-opacity="0.5"/>
<stop offset="1" stop-color="#C2F4FF" stop-opacity="0"/>
</linearGradient>
<linearGradient id="paint32_linear_142_23785" x1="492.351" y1="267.988" x2="484.645" y2="251.462" gradientUnits="userSpaceOnUse">
<stop stop-color="#005BFF"/>
<stop offset="1" stop-color="#0093FF"/>
</linearGradient>
<linearGradient id="paint33_linear_142_23785" x1="558.78" y1="234.742" x2="547.428" y2="210.395" gradientUnits="userSpaceOnUse">
<stop stop-color="#005BFF"/>
<stop offset="1" stop-color="#0093FF"/>
</linearGradient>
<linearGradient id="paint34_linear_142_23785" x1="478.023" y1="549.68" x2="520.06" y2="476.867" gradientUnits="userSpaceOnUse">
<stop stop-color="#005BFF"/>
<stop offset="1" stop-color="#0093FF"/>
</linearGradient>
<linearGradient id="paint35_linear_142_23785" x1="508.457" y1="494.817" x2="488.807" y2="528.852" gradientUnits="userSpaceOnUse">
<stop stop-color="#005BFF"/>
<stop offset="1" stop-color="#0093FF"/>
</linearGradient>
<linearGradient id="paint36_linear_142_23785" x1="352.347" y1="533.192" x2="352.347" y2="457.649" gradientUnits="userSpaceOnUse">
<stop stop-color="#EF4210"/>
<stop offset="0.2427" stop-color="#F46A42"/>
<stop offset="0.7593" stop-color="#FBAC95"/>
<stop offset="1" stop-color="#FFDACF"/>
</linearGradient>
<clipPath id="clip0_142_23785">
<rect width="587" height="534" fill="white" transform="translate(67.5 9.5)"/>
</clipPath>
</defs>
</svg>
