<svg width="42" height="42" viewBox="0 0 42 42" fill="none" xmlns="http://www.w3.org/2000/svg">
<path d="M8.09795 18.6379L4.44595 21.8679C3.95547 22.3004 3.63002 22.8895 3.525 23.535C3.41998 24.1804 3.54188 24.8423 3.86995 25.4079L7.17595 31.2079C7.49991 31.7688 8.00781 32.2005 8.6136 32.4297C9.21939 32.659 9.88581 32.6718 10.5 32.4659L15.094 30.8999L8.09795 18.6379Z" stroke="#EF4210" stroke-width="1.5" stroke-linecap="round" stroke-linejoin="round"/>
<path d="M15.5157 6.17993C14.6028 8.98449 13.4589 11.7085 12.0957 14.3239C11.0745 16.0226 9.71255 17.4915 8.0957 18.6379L15.0937 30.8619C16.9036 30.0275 18.8653 29.5729 20.8577 29.5259C23.7857 29.6579 26.6977 30.0259 29.5637 30.6299" stroke="#EF4210" stroke-width="1.5" stroke-linecap="round" stroke-linejoin="round"/>
<path d="M4.11985 25.832L2.90785 26.548C2.58499 26.7326 2.30227 26.9798 2.07628 27.2752C1.8503 27.5706 1.68559 27.9081 1.59185 28.268C1.49742 28.628 1.47514 29.0031 1.52628 29.3718C1.57743 29.7404 1.70099 30.0953 1.88985 30.416C2.07263 30.7388 2.31775 31.0221 2.61097 31.2494C2.90418 31.4767 3.23964 31.6435 3.59785 31.74C3.95571 31.8358 4.32916 31.8588 4.69607 31.8076C5.06297 31.7564 5.41587 31.6321 5.73385 31.442L6.86785 30.726M16.4758 30.32L19.8778 36.26C20.2416 36.9108 20.3388 37.6774 20.1489 38.3984C19.959 39.1194 19.497 39.7387 18.8598 40.126C18.5392 40.311 18.1851 40.4308 17.818 40.4784C17.4509 40.526 17.0779 40.5006 16.7207 40.4036C16.3634 40.3065 16.0289 40.1398 15.7363 39.913C15.4437 39.6862 15.1989 39.4038 15.0158 39.082L11.1718 32.254M36.2718 10.784L31.2758 13.684M40.4998 20.746H34.7338M29.4498 1.5L26.5658 6.53M15.5058 6.182L17.9358 4.77C18.2549 4.58376 18.6077 4.46272 18.9739 4.41392C19.3401 4.36512 19.7123 4.38952 20.0689 4.48571C20.4256 4.5819 20.7596 4.74797 21.0516 4.97427C21.3436 5.20057 21.5877 5.4826 21.7698 5.804L32.9838 25.352C33.3482 26.0005 33.4435 26.766 33.2494 27.4841C33.0553 28.2021 32.5873 28.8154 31.9458 29.192L29.5158 30.606L15.5058 6.182Z" stroke="#EF4210" stroke-width="1.5" stroke-linecap="round" stroke-linejoin="round"/>
</svg>
