<svg width="529" height="579" viewBox="0 0 529 579" fill="none" xmlns="http://www.w3.org/2000/svg">
<path d="M40 278.31V558.774C40 569.983 49.0363 579 60.2683 579H308.133C313.369 579 318.352 576.977 322.068 573.438L332.624 559.28C336.425 554.139 342.505 551.19 348.839 551.19H447.732C458.964 551.19 468 542.172 468 530.964V527.087V278.226C468 267.017 458.964 258 447.732 258H60.0994C49.0363 258.084 40 267.102 40 278.31Z" fill="#026A80"/>
<path d="M528.346 487.596C528.346 495.912 521.188 503.993 507.823 511.45C494.5 518.883 475.189 525.594 451.284 531.236C403.48 542.517 337.415 549.5 264.423 549.5C191.432 549.5 125.366 542.517 77.5626 531.236C53.6568 525.594 34.3458 518.883 21.0233 511.45C7.65865 503.993 0.5 495.912 0.5 487.596C0.5 479.28 7.65865 471.199 21.0233 463.742C34.3458 456.309 53.6568 449.598 77.5626 443.957C125.366 432.675 191.432 425.692 264.423 425.692C337.415 425.692 403.48 432.675 451.284 443.957C475.189 449.598 494.5 456.309 507.823 463.742C521.188 471.199 528.346 479.28 528.346 487.596Z" stroke="url(#paint0_linear_4027_3806)"/>
<path d="M528.346 459.391C528.346 467.707 521.188 475.788 507.823 483.245C494.5 490.678 475.189 497.389 451.284 503.031C403.48 514.312 337.415 521.295 264.423 521.295C191.432 521.295 125.366 514.312 77.5626 503.031C53.6568 497.389 34.3458 490.678 21.0233 483.245C7.65865 475.788 0.5 467.707 0.5 459.391C0.5 451.075 7.65865 442.994 21.0233 435.537C34.3458 428.104 53.6568 421.393 77.5626 415.752C125.366 404.47 191.432 397.487 264.423 397.487C337.415 397.487 403.48 404.47 451.284 415.752C475.189 421.393 494.5 428.104 507.823 435.537C521.188 442.994 528.346 451.075 528.346 459.391Z" stroke="url(#paint1_linear_4027_3806)"/>
<path d="M528.346 431.186C528.346 439.502 521.188 447.583 507.823 455.04C494.5 462.473 475.189 469.184 451.284 474.825C403.48 486.107 337.415 493.09 264.423 493.09C191.432 493.09 125.366 486.107 77.5626 474.825C53.6568 469.184 34.3458 462.473 21.0233 455.04C7.65865 447.583 0.5 439.502 0.5 431.186C0.5 422.87 7.65865 414.789 21.0233 407.332C34.3458 399.899 53.6568 393.188 77.5626 387.546C125.366 376.265 191.432 369.282 264.423 369.282C337.415 369.282 403.48 376.265 451.284 387.546C475.189 393.188 494.5 399.899 507.823 407.332C521.188 414.789 528.346 422.87 528.346 431.186Z" stroke="url(#paint2_linear_4027_3806)"/>
<path d="M528.346 402.981C528.346 411.297 521.188 419.377 507.823 426.834C494.5 434.268 475.189 440.979 451.284 446.62C403.48 457.902 337.415 464.885 264.423 464.885C191.432 464.885 125.366 457.902 77.5626 446.62C53.6568 440.979 34.3458 434.268 21.0233 426.834C7.65865 419.377 0.5 411.297 0.5 402.981C0.5 394.665 7.65865 386.584 21.0233 379.127C34.3458 371.693 53.6568 364.983 77.5626 359.341C125.366 348.06 191.432 341.077 264.423 341.077C337.415 341.077 403.48 348.06 451.284 359.341C475.189 364.983 494.5 371.693 507.823 379.127C521.188 386.584 528.346 394.665 528.346 402.981Z" stroke="url(#paint3_linear_4027_3806)"/>
<path d="M528.346 318.365C528.346 326.681 521.188 334.762 507.823 342.219C494.5 349.653 475.189 356.363 451.284 362.005C403.48 373.286 337.415 380.269 264.423 380.269C191.432 380.269 125.366 373.286 77.5626 362.005C53.6568 356.363 34.3458 349.653 21.0233 342.219C7.65865 334.762 0.5 326.681 0.5 318.365C0.5 310.049 7.65865 301.969 21.0233 294.511C34.3458 287.078 53.6568 280.367 77.5626 274.726C125.366 263.444 191.432 256.461 264.423 256.461C337.415 256.461 403.48 263.444 451.284 274.726C475.189 280.367 494.5 287.078 507.823 294.511C521.188 301.969 528.346 310.049 528.346 318.365Z" stroke="url(#paint4_linear_4027_3806)"/>
<path d="M528.346 143.494C528.346 151.81 521.188 159.89 507.823 167.347C494.5 174.781 475.189 181.491 451.284 187.133C403.48 198.415 337.415 205.398 264.423 205.398C191.432 205.398 125.366 198.415 77.5626 187.133C53.6568 181.491 34.3458 174.781 21.0233 167.347C7.65865 159.89 0.5 151.81 0.5 143.494C0.5 135.178 7.65865 127.097 21.0233 119.64C34.3458 112.206 53.6568 105.496 77.5626 99.8541C125.366 88.5725 191.432 81.5898 264.423 81.5898C337.415 81.5898 403.48 88.5725 451.284 99.8541C475.189 105.496 494.5 112.206 507.823 119.64C521.188 127.097 528.346 135.178 528.346 143.494Z" stroke="url(#paint5_linear_4027_3806)"/>
<g filter="url(#filter0_f_4027_3806)">
<path d="M264.423 533.782C383.979 533.782 480.897 510.894 480.897 482.66C480.897 454.427 383.979 431.539 264.423 431.539C144.868 431.539 47.9487 454.427 47.9487 482.66C47.9487 510.894 144.868 533.782 264.423 533.782Z" fill="url(#paint6_radial_4027_3806)"/>
</g>
<path d="M264.4 511.264C331.152 511.264 385.265 498.484 385.265 482.719C385.265 466.954 331.152 454.174 264.4 454.174C197.648 454.174 143.535 466.954 143.535 482.719C143.535 498.484 197.648 511.264 264.4 511.264Z" fill="url(#paint7_linear_4027_3806)" fill-opacity="0.2"/>
<path d="M264.401 505.194C322.069 505.194 368.818 495.132 368.818 482.719C368.818 470.307 322.069 460.245 264.401 460.245C206.733 460.245 159.983 470.307 159.983 482.719C159.983 495.132 206.733 505.194 264.401 505.194Z" fill="white" fill-opacity="0.6"/>
<path d="M143.535 0H385.312C385.312 0 385.312 481.472 385.312 482.317C385.312 498.269 331.209 511.218 264.447 511.218C197.638 511.171 143.535 498.269 143.535 482.317C143.535 481.472 143.535 0 143.535 0Z" fill="url(#paint8_linear_4027_3806)" fill-opacity="0.4"/>
<path d="M203.274 291.848C203.274 294.999 207.802 297.316 212.699 296.714C229.24 294.721 247.998 293.563 267.865 293.563C285.098 293.563 301.546 294.397 316.377 295.972C321.228 296.482 325.571 294.165 325.571 291.06V265.481C325.571 263.025 322.753 260.986 318.964 260.569C303.44 258.855 286.115 257.882 267.865 257.882C246.75 257.882 226.929 259.179 209.65 261.403C205.954 261.867 203.274 263.906 203.274 266.315V291.848Z" fill="url(#paint9_linear_4027_3806)"/>
<path d="M345.069 353.155V395.046C345.069 397.316 347.287 399.355 350.659 400.143C372.097 405.287 385.265 412.33 385.265 420.162V366.408C385.265 359.457 374.823 353.155 357.451 348.197C351.676 346.529 345.069 349.17 345.069 353.155Z" fill="url(#paint10_linear_4027_3806)"/>
<path d="M311.527 399.309V437.029C311.527 442.034 318.873 445.787 326.635 444.675C361.795 439.67 385.359 430.588 385.359 420.208V366.454C385.359 377.344 359.578 386.797 321.646 391.617C315.778 392.358 311.527 395.555 311.527 399.309Z" fill="url(#paint11_linear_4027_3806)"/>
<path d="M217.32 326.51V349.17C217.32 352.043 214.039 354.545 209.512 355.101C170.378 359.782 143.535 369.374 143.535 380.495V345.509C143.535 334.758 168.623 325.444 205.677 320.579C211.683 319.791 217.32 322.617 217.32 326.51Z" fill="url(#paint12_linear_4027_3806)"/>
<path d="M308.846 343.516C303.579 342.59 298.035 341.755 292.167 341.06C287.917 340.551 283.943 342.59 283.943 345.324V371.459C283.943 373.544 286.3 375.351 289.534 375.722C295.032 376.371 300.253 377.066 305.243 377.9C309.632 378.595 313.929 376.556 313.929 373.729V347.733C313.929 345.741 311.85 344.072 308.846 343.516Z" fill="url(#paint13_linear_4027_3806)"/>
<path d="M241.021 467.891C234.645 467.891 228.407 467.752 222.309 467.52C217.781 467.335 214.27 465.018 214.27 462.191V437.168C214.27 434.11 218.335 431.654 223.187 431.839C229.008 432.024 234.922 432.163 240.974 432.163C248.736 432.163 256.36 431.978 263.706 431.654C268.603 431.422 272.715 433.878 272.715 436.983V462.006C272.715 464.832 269.25 467.103 264.769 467.335C257.145 467.705 249.198 467.891 241.021 467.891Z" fill="url(#paint14_linear_4027_3806)"/>
<path opacity="0.6" d="M225.958 331.931C228.361 331.931 230.255 330.727 230.255 329.197V168.03C230.255 166.547 228.315 165.296 225.958 165.296C223.556 165.296 221.662 166.5 221.662 168.03V329.244C221.662 330.727 223.556 331.931 225.958 331.931Z" fill="url(#paint15_linear_4027_3806)"/>
<path d="M288.331 209.689C290.549 209.689 292.397 208.53 292.397 207.14V151.626C292.397 150.236 290.595 149.077 288.331 149.077C286.113 149.077 284.265 150.236 284.265 151.626V207.14C284.311 208.577 286.113 209.689 288.331 209.689Z" fill="url(#paint16_linear_4027_3806)"/>
<path d="M353.385 411.959C356.157 411.959 358.375 410.569 358.375 408.808V176.695C358.375 174.981 356.157 173.544 353.385 173.544C350.613 173.544 348.395 174.934 348.395 176.695V408.808C348.395 410.523 350.659 411.959 353.385 411.959Z" fill="url(#paint17_linear_4027_3806)"/>
<path d="M301.638 412.84C304.456 412.84 306.72 411.403 306.72 409.642V309.364C306.72 307.604 304.456 306.167 301.638 306.167C298.82 306.167 296.556 307.604 296.556 309.364V409.596C296.556 411.403 298.866 412.84 301.638 412.84Z" fill="url(#paint18_linear_4027_3806)"/>
<path d="M348.394 490.226C351.212 490.226 353.476 488.79 353.476 487.029V421.32C353.476 419.559 351.212 418.123 348.394 418.123C345.575 418.123 343.312 419.559 343.312 421.32V487.029C343.312 488.79 345.575 490.226 348.394 490.226Z" fill="url(#paint19_linear_4027_3806)"/>
<path d="M164.464 473.22C167.282 473.22 169.546 471.783 169.546 470.022V404.313C169.546 402.552 167.282 401.116 164.464 401.116C161.645 401.116 159.381 402.552 159.381 404.313V470.022C159.381 471.783 161.645 473.22 164.464 473.22Z" fill="url(#paint20_linear_4027_3806)"/>
<path d="M197.545 442.497C199.901 442.497 201.842 441.292 201.842 439.809V242.543C201.842 241.061 199.901 239.856 197.545 239.856C195.189 239.856 193.248 241.061 193.248 242.543V439.763C193.248 441.246 195.189 442.497 197.545 442.497Z" fill="url(#paint21_linear_4027_3806)"/>
<path opacity="0.4" d="M324.509 263.581C330.007 261.728 335.505 265.064 333.01 268.493C332.502 269.188 331.716 269.698 330.885 269.976C325.386 271.83 319.842 268.493 322.383 265.064C322.938 264.323 323.677 263.859 324.509 263.581ZM272.3 293.702C271.237 295.277 273.778 296.76 276.273 295.926C276.643 295.787 277.013 295.555 277.244 295.231C278.306 293.655 275.765 292.172 273.27 293.053C272.901 293.146 272.531 293.377 272.3 293.702ZM207.986 246.111C205.907 248.984 210.481 251.718 215.055 250.189C215.748 249.957 216.395 249.54 216.811 248.984C218.89 246.111 214.316 243.377 209.742 244.907C209.095 245.138 208.448 245.509 207.986 246.111ZM202.119 315.805C201.01 317.427 203.643 319.003 206.231 318.076C206.647 317.937 207.016 317.705 207.247 317.335C208.356 315.713 205.723 314.137 203.135 315.064C202.719 315.203 202.35 315.481 202.119 315.805ZM308.43 349.355C306.998 351.301 310.186 353.201 313.328 352.135C313.79 351.996 314.205 351.718 314.483 351.301C315.915 349.355 312.727 347.409 309.585 348.521C309.123 348.706 308.707 348.984 308.43 349.355ZM264.677 415.805C261.812 419.744 268.188 423.544 274.425 421.413C275.349 421.088 276.181 420.532 276.782 419.744C279.646 415.805 273.27 412.006 267.033 414.137C266.063 414.462 265.231 415.018 264.677 415.805ZM240.744 388.558C239.774 389.995 242.084 391.385 244.394 390.597C244.763 390.458 245.087 390.226 245.318 389.902C246.288 388.465 243.978 387.075 241.668 387.863C241.298 388.048 240.929 388.234 240.744 388.558ZM342.527 442.219C341.326 443.98 344.191 445.694 347.009 444.675C347.425 444.536 347.841 444.258 348.118 443.887C349.319 442.126 346.455 440.412 343.636 441.385C343.174 441.57 342.805 441.802 342.527 442.219ZM183.361 430.449C181.975 432.302 185.024 434.109 187.981 433.09C188.397 432.951 188.812 432.673 189.043 432.302C190.383 430.449 187.38 428.641 184.423 429.707C184.007 429.846 183.638 430.078 183.361 430.449ZM273.27 228.919C272.208 230.263 274.333 231.561 276.458 230.866C276.828 230.727 277.151 230.541 277.336 230.171C278.075 228.919 276.042 227.715 274.009 228.41C273.732 228.502 273.455 228.688 273.27 228.919ZM239.127 189.114C238.341 190.365 240.374 191.57 242.407 190.875C242.777 190.736 243.1 190.551 243.285 190.18C244.024 188.929 242.038 187.724 240.005 188.419C239.681 188.558 239.358 188.79 239.127 189.114ZM336.567 218.169C335.736 219.188 337.353 220.208 339.016 219.652C339.247 219.559 339.478 219.42 339.663 219.235C340.448 218.215 338.739 217.196 337.076 217.798C336.845 217.891 336.706 218.03 336.567 218.169ZM360.177 318.632C359.715 319.188 360.546 319.744 361.424 319.513C361.609 319.466 361.748 319.374 361.84 319.235C362.21 318.679 361.286 318.122 360.408 318.493C360.362 318.493 360.269 318.54 360.177 318.632ZM174.767 452.274C174.028 453.526 176.014 454.638 177.955 453.989C178.232 453.896 178.509 453.757 178.694 453.479C179.711 452.182 177.678 450.931 175.599 451.579C175.321 451.718 174.998 451.95 174.767 452.274ZM340.31 383.368C339.617 384.295 341.095 385.175 342.527 384.712C342.758 384.619 342.99 384.527 343.128 384.295C343.821 383.368 342.343 382.488 340.91 382.951C340.679 383.044 340.448 383.183 340.31 383.368Z" fill="url(#paint22_linear_4027_3806)"/>
<defs>
<filter id="filter0_f_4027_3806" x="7.94873" y="391.539" width="512.949" height="182.244" filterUnits="userSpaceOnUse" color-interpolation-filters="sRGB">
<feFlood flood-opacity="0" result="BackgroundImageFix"/>
<feBlend mode="normal" in="SourceGraphic" in2="BackgroundImageFix" result="shape"/>
<feGaussianBlur stdDeviation="20" result="effect1_foregroundBlur_4027_3806"/>
</filter>
<linearGradient id="paint0_linear_4027_3806" x1="264.423" y1="425.192" x2="264.423" y2="550" gradientUnits="userSpaceOnUse">
<stop stop-color="#121212" stop-opacity="0"/>
<stop offset="1" stop-color="white" stop-opacity="0.2"/>
</linearGradient>
<linearGradient id="paint1_linear_4027_3806" x1="264.423" y1="396.987" x2="264.423" y2="521.795" gradientUnits="userSpaceOnUse">
<stop stop-color="#121212" stop-opacity="0"/>
<stop offset="1" stop-color="white" stop-opacity="0.2"/>
</linearGradient>
<linearGradient id="paint2_linear_4027_3806" x1="264.423" y1="368.782" x2="264.423" y2="493.59" gradientUnits="userSpaceOnUse">
<stop stop-color="#121212" stop-opacity="0"/>
<stop offset="1" stop-color="white" stop-opacity="0.2"/>
</linearGradient>
<linearGradient id="paint3_linear_4027_3806" x1="264.423" y1="340.577" x2="264.423" y2="465.385" gradientUnits="userSpaceOnUse">
<stop stop-color="#121212" stop-opacity="0"/>
<stop offset="1" stop-color="white" stop-opacity="0.2"/>
</linearGradient>
<linearGradient id="paint4_linear_4027_3806" x1="264.423" y1="255.961" x2="264.423" y2="380.769" gradientUnits="userSpaceOnUse">
<stop stop-color="#121212" stop-opacity="0"/>
<stop offset="1" stop-color="white" stop-opacity="0.2"/>
</linearGradient>
<linearGradient id="paint5_linear_4027_3806" x1="264.423" y1="81.0898" x2="264.423" y2="205.898" gradientUnits="userSpaceOnUse">
<stop stop-color="#121212" stop-opacity="0"/>
<stop offset="1" stop-color="white" stop-opacity="0.2"/>
</linearGradient>
<radialGradient id="paint6_radial_4027_3806" cx="0" cy="0" r="1" gradientUnits="userSpaceOnUse" gradientTransform="translate(262.915 482.634) scale(207.912 208.515)">
<stop stop-color="#7AFFFD" stop-opacity="0.2"/>
<stop offset="1" stop-color="#E2FEFF" stop-opacity="0.03"/>
</radialGradient>
<linearGradient id="paint7_linear_4027_3806" x1="147.474" y1="482.705" x2="379.643" y2="482.705" gradientUnits="userSpaceOnUse">
<stop stop-color="#7AFFFD"/>
<stop offset="1" stop-color="#E2FEFF"/>
</linearGradient>
<linearGradient id="paint8_linear_4027_3806" x1="264.418" y1="75.4487" x2="264.418" y2="555.345" gradientUnits="userSpaceOnUse">
<stop offset="0.00250401" stop-color="#E3FAFF" stop-opacity="0"/>
<stop offset="0.2" stop-color="#B8FFFE" stop-opacity="0.2"/>
<stop offset="0.4903" stop-color="#9ADEEC" stop-opacity="0.5"/>
<stop offset="0.9519" stop-color="#026A80" stop-opacity="0.9"/>
<stop offset="0.9956" stop-color="#026A80"/>
</linearGradient>
<linearGradient id="paint9_linear_4027_3806" x1="264.417" y1="255.367" x2="264.417" y2="359.762" gradientUnits="userSpaceOnUse">
<stop offset="0.00250401" stop-color="#F6A4FF" stop-opacity="0"/>
<stop offset="0.163" stop-color="#E2ADFF" stop-opacity="0.1616"/>
<stop offset="0.4903" stop-color="#B0C4FF" stop-opacity="0.4912"/>
<stop offset="0.9519" stop-color="#5FE9FF" stop-opacity="0.956"/>
<stop offset="0.9956" stop-color="#57EDFF"/>
</linearGradient>
<linearGradient id="paint10_linear_4027_3806" x1="365.189" y1="327.082" x2="365.189" y2="436.729" gradientUnits="userSpaceOnUse">
<stop offset="0.00250401" stop-color="#F6A4FF" stop-opacity="0"/>
<stop offset="0.163" stop-color="#E2ADFF" stop-opacity="0.1616"/>
<stop offset="0.4903" stop-color="#B0C4FF" stop-opacity="0.4912"/>
<stop offset="0.9519" stop-color="#5FE9FF" stop-opacity="0.956"/>
<stop offset="0.9956" stop-color="#57EDFF"/>
</linearGradient>
<linearGradient id="paint11_linear_4027_3806" x1="348.404" y1="349.979" x2="348.404" y2="448.839" gradientUnits="userSpaceOnUse">
<stop offset="0.00813301" stop-color="#F6A4FF" stop-opacity="0.5"/>
<stop offset="0.1677" stop-color="#E2ADFF" stop-opacity="0.5808"/>
<stop offset="0.4931" stop-color="#B0C4FF" stop-opacity="0.7456"/>
<stop offset="0.9522" stop-color="#5FE9FF" stop-opacity="0.978"/>
<stop offset="0.9956" stop-color="#57EDFF"/>
</linearGradient>
<linearGradient id="paint12_linear_4027_3806" x1="180.432" y1="299.416" x2="180.432" y2="394.332" gradientUnits="userSpaceOnUse">
<stop offset="0.00250401" stop-color="#F6A4FF" stop-opacity="0"/>
<stop offset="0.163" stop-color="#E2ADFF" stop-opacity="0.1616"/>
<stop offset="0.4903" stop-color="#B0C4FF" stop-opacity="0.4912"/>
<stop offset="0.9519" stop-color="#5FE9FF" stop-opacity="0.956"/>
<stop offset="0.9956" stop-color="#57EDFF"/>
</linearGradient>
<linearGradient id="paint13_linear_4027_3806" x1="298.934" y1="336.782" x2="298.934" y2="400.222" gradientUnits="userSpaceOnUse">
<stop offset="0.00250401" stop-color="#F6A4FF" stop-opacity="0"/>
<stop offset="0.163" stop-color="#E2ADFF" stop-opacity="0.1616"/>
<stop offset="0.4903" stop-color="#B0C4FF" stop-opacity="0.4912"/>
<stop offset="0.9519" stop-color="#5FE9FF" stop-opacity="0.956"/>
<stop offset="0.9956" stop-color="#57EDFF"/>
</linearGradient>
<linearGradient id="paint14_linear_4027_3806" x1="243.534" y1="380.227" x2="243.534" y2="507.174" gradientUnits="userSpaceOnUse">
<stop offset="0.00813301" stop-color="#F6A4FF" stop-opacity="0.5"/>
<stop offset="0.1677" stop-color="#E2ADFF" stop-opacity="0.5808"/>
<stop offset="0.4931" stop-color="#B0C4FF" stop-opacity="0.7456"/>
<stop offset="0.9522" stop-color="#5FE9FF" stop-opacity="0.978"/>
<stop offset="0.9956" stop-color="#57EDFF"/>
</linearGradient>
<linearGradient id="paint15_linear_4027_3806" x1="225.908" y1="165.338" x2="225.908" y2="331.557" gradientUnits="userSpaceOnUse">
<stop stop-color="#026A80"/>
<stop offset="0.2427" stop-color="#22B5D3"/>
<stop offset="0.7593" stop-color="#95E9FB" stop-opacity="0.5"/>
<stop offset="1" stop-color="#C2F4FF" stop-opacity="0"/>
</linearGradient>
<linearGradient id="paint16_linear_4027_3806" x1="288.283" y1="149.093" x2="288.283" y2="209.552" gradientUnits="userSpaceOnUse">
<stop stop-color="#EF4210"/>
<stop offset="0.2427" stop-color="#F46A42"/>
<stop offset="0.7593" stop-color="#FBAC95" stop-opacity="0.5"/>
<stop offset="1" stop-color="#FFDACF" stop-opacity="0"/>
</linearGradient>
<linearGradient id="paint17_linear_4027_3806" x1="353.326" y1="173.605" x2="353.326" y2="411.423" gradientUnits="userSpaceOnUse">
<stop stop-color="#026A80"/>
<stop offset="0.2427" stop-color="#22B5D3"/>
<stop offset="0.7593" stop-color="#95E9FB" stop-opacity="0.5"/>
<stop offset="1" stop-color="#C2F4FF" stop-opacity="0"/>
</linearGradient>
<linearGradient id="paint18_linear_4027_3806" x1="301.578" y1="306.194" x2="301.578" y2="412.6" gradientUnits="userSpaceOnUse">
<stop stop-color="#EF4210"/>
<stop offset="0.2427" stop-color="#F46A42"/>
<stop offset="0.7593" stop-color="#FBAC95" stop-opacity="0.5"/>
<stop offset="1" stop-color="#FFDACF" stop-opacity="0"/>
</linearGradient>
<linearGradient id="paint19_linear_4027_3806" x1="348.334" y1="418.141" x2="348.334" y2="490.064" gradientUnits="userSpaceOnUse">
<stop stop-color="#EF4210"/>
<stop offset="0.2427" stop-color="#F46A42"/>
<stop offset="0.7593" stop-color="#FBAC95" stop-opacity="0.5"/>
<stop offset="1" stop-color="#FFDACF" stop-opacity="0"/>
</linearGradient>
<linearGradient id="paint20_linear_4027_3806" x1="164.404" y1="401.134" x2="164.404" y2="473.058" gradientUnits="userSpaceOnUse">
<stop stop-color="#EF4210"/>
<stop offset="0.2427" stop-color="#F46A42"/>
<stop offset="0.7593" stop-color="#FBAC95" stop-opacity="0.5"/>
<stop offset="1" stop-color="#FFDACF" stop-opacity="0"/>
</linearGradient>
<linearGradient id="paint21_linear_4027_3806" x1="197.494" y1="239.908" x2="197.494" y2="442.041" gradientUnits="userSpaceOnUse">
<stop stop-color="#026A80"/>
<stop offset="0.2427" stop-color="#22B5D3"/>
<stop offset="0.7593" stop-color="#95E9FB" stop-opacity="0.5"/>
<stop offset="1" stop-color="#C2F4FF" stop-opacity="0"/>
</linearGradient>
<linearGradient id="paint22_linear_4027_3806" x1="268.299" y1="407.825" x2="268.299" y2="172.19" gradientUnits="userSpaceOnUse">
<stop offset="0.00062099" stop-color="white"/>
<stop offset="0.9956" stop-color="#57EDFF" stop-opacity="0"/>
</linearGradient>
</defs>
</svg>
